<ttFont>
          <CharString index="0">
            rmoveto
            -19 42 rlineto
            0 -46 -24 -83 -101 -30 52 96 -1 vhcurveto
            245 hlineto
            31 16 15 69 90 -40 111 -157 -141 -96 -99 -172 -18 callgsubr
            109 72 70 0 hvcurveto
            -129 239 rmoveto
            -151 -8 rlineto
            78 3 15 59 70 hhcurveto
            58 8 -31 -66 -8 -1 -12 -2 -12 hvcurveto
            return
          </CharString>
          <CharString index="1">
            rmoveto
            188 60 134 143 146 -65 102 -160 -7 callgsubr
            17 76 rmoveto
            -95 -12 57 126 126 13 55 89 78 16 -53 -128 -113 -8 -70 -81 hvcurveto
            return
          </CharString>
          <CharString index="2">
            rmoveto
            32 -42 117 71 121 -72 40 47 -108 108 rlineto
            15 -15 -15 12 -15 hhcurveto
            -19 -19 -17 -18 -18 hvcurveto
            return
          </CharString>
          <CharString index="3">
            48 31 37 43 45 -31 27 -40 -43 -35 -37 -42 -43 30 -30 40 hvcurveto
            return
          </CharString>
          <CharString index="4">
            69 7 rlineto
            -1 4 0 3 2 vvcurveto
            11 9 3 26 12 vhcurveto
            36 18 13 22 23 vvcurveto
            51 -48 28 -82 -58 -21 -14 -21 -8 3 -14 16 -18 vhcurveto
            5 18 18 3 18 hhcurveto
            26 12 -5 -16 -16 -13 -8 -12 -7 hvcurveto
            -29 -16 -11 -10 -12 vvcurveto
            return
          </CharString>
          <CharString index="5">
            rmoveto
            25 -50 220 68 rlineto
            3 11 3 13 11 vvcurveto
            55 -38 15 -18 -15 -19 -14 -10 -18 vhcurveto
            return
          </CharString>
          <CharString index="6">
            rmoveto
            -117 19 rlineto
            40 14 vlineto
            hintmask 1101010100000000
            -76 callsubr
            hintmask 1110010100000000
            -46 callsubr
            hintmask 1110001100000000
            -27 -15 -32 -30 -35 vvcurveto
            -16 4 -15 9 -12 vhcurveto
            hintmask 1110100010000000
            -45 callgsubr
            hintmask 1110001010000000
            82 -52 23 -103 17 125 callsubr
            -64 callgsubr
            hintmask 1110100010000000
            -63 callsubr
            hintmask 1110010100000000
            7 -2 8 -1 8 -1 rrcurveto
            endchar
          </CharString>
          <CharString index="7">
            rmoveto
            -75 -30 rlineto
            0 28 -139 144 135 24 152 0 vhcurveto
            -41 17 rlineto
            0 -24 -80 -88 -85 -18 80 0 vhcurveto
            return
          </CharString>
          <CharString index="8">
            rmoveto
            -43 -49 91 -88 rlineto
            -28 29 18 -16 12 hhcurveto
            12 18 16 28 29 hvcurveto
            98 95 -32 42 -117 -75 rlineto
            return
          </CharString>
          <CharString index="9">
            rmoveto
            220 -68 25 50 -143 99 rlineto
            10 -18 -19 14 -15 hhcurveto
            -18 -38 -15 -55 -11 3 -13 3 -11 hvcurveto
            return
          </CharString>
          <CharString index="10">
            rmoveto
            41 -28 16 -5 4 vhcurveto
            -73 -48 rlineto
            -15 vlineto
            8 -7 6 -7 -15 vvcurveto
            return
          </CharString>
          <CharString index="11">
            rmoveto
            44 hlineto
            0 68 62 67 vvcurveto
            29 -17 30 -45 -26 -16 -14 -16 -14 vhcurveto
            0 20 -19 -45 vvcurveto
            -44 -14 -50 0 vhcurveto
            endchar
          </CharString>
          <CharString index="12">
            79 callsubr
            28 30 6 44 29 hvcurveto
            35 53 -38 36 -72 -38 -100 33 rlineto
            8 -24 -13 2 -20 hhcurveto
            -29 -29 -5 -44 -29 hvcurveto
            return
          </CharString>
          <CharString index="13">
            vlineto
            -37 14 -176 -68 callgsubr
            return
          </CharString>
          <CharString index="14">
            47 callsubr
            -251 vlineto
            -13 -33 -36 -7 -32 hhcurveto
            -113 -20 69 123 hvcurveto
            79 vlineto
            7 callgsubr
            80 -19 rlineto
            -79 vlineto
            -194 64 -85 199 39 39 5 10 35 vhcurveto
            -107 -3 -25 -58 -120 hhcurveto
            return
          </CharString>
          <CharString index="15">
            176 325 72 18 rlineto
            56 -247 -56 vlineto
            71 -16 rlineto
            -8 vlineto
            -122 -236 rlineto
            -10 hlineto
            -121 230 rlineto
            15 vlineto
            63 15 rlineto
            56 -277 -56 vlineto
            65 -16 rlineto
            return
          </CharString>
          <CharString index="16">
            -97 callsubr
            -34 -33 -35 -40 -29 vhcurveto
            84 -50 -88 43 -121 hhcurveto
            -17 callgsubr
            hintmask 11111000
            209 122 146 207 66 -10 56 -19 47 hvcurveto
            hintmask 11111100
            115 67 32 54 43 vvcurveto
            hintmask 11111000
            -430 -603 rmoveto
            -111 -51 73 202 185 48 57 102 110 50 -72 -201 -186 -46 -58 -102 hvcurveto
            endchar
          </CharString>
          <CharString index="17">
            -97 callsubr
            -36 -36 -37 -43 -30 vhcurveto
            112 vlineto
            -38 14 20 callsubr
            -101 callgsubr
            80 -16 rlineto
            -87 callsubr
            return
          </CharString>
          <CharString index="18">
            67.5 112.5 80 236 159 0 -20 return
          </CharString>
          <CharString index="19">
            rmoveto
            -7 -145 rlineto
            -11 20 78 -22 75 hhcurveto
            96 102 38 123 hvcurveto
            203 -260 -67 95 vvcurveto
            28 15 24 66 vhcurveto
            hintmask 11010100
            39 27 -14 0 hvcurveto
            21 -71 rlineto
            63 hlineto
            hintmask 10110100
            8 144 rlineto
            hintmask 11010100
            5 -18 -71 15 -63 hhcurveto
            -122 -81 -50 -109 hvcurveto
            hintmask 11011000
            -206 260 87 -105 vvcurveto
            -48 -16 -19 -68 return
          </CharString>
          <CharString index="20">
            -280 vlineto
            -98 49 -43 100 81 62 48 0 vhcurveto
            9 hlineto
            return
          </CharString>
          <CharString index="21">
            713 rmoveto
            -99 111 rlineto
            16 -14 -14 15 -21 hhcurveto
            -25 -25 -26 -47 -6 hvcurveto
            169 -111 rlineto
            225 42 rmoveto
            -99 111 rlineto
            16 -14 -14 15 -21 hhcurveto
            -25 -25 -26 -47 -6 hvcurveto
            169 -111 rlineto
            return
          </CharString>
          <CharString index="22">
            -56 callsubr
            hlineto
            hintmask 11011000
            573 vlineto
            hintmask 10111000
            103 callgsubr
            hintmask 11011000
            80 -18 rlineto
            -355 -4 vlineto
            -4 15 rlineto
            hintmask 10111000
            -263 415 rlineto
            -210 -61 hlineto
            hintmask 11011000
            95 callgsubr
            endchar
          </CharString>
          <CharString index="23">
            696 rmoveto
            22 -11 -11 23 -27 hhcurveto
            -21 -31 -20 -38 -17 hvcurveto
            134 -153 49 32 rlineto
            108 134 rmoveto
            22 -11 -11 23 -27 hhcurveto
            -21 -31 -20 -38 -17 hvcurveto
            134 -153 49 32 rlineto
            return
          </CharString>
          <CharString index="24">
            561 -105 callgsubr
            return
          </CharString>
          <CharString index="25">
            667 rmoveto
            -39 -62 35 -33 75 38 92 -30 rlineto
            -8 26 29 -9 24 hhcurveto
            29 23 12 28 17 hvcurveto
            39 63 rlineto
            return
          </CharString>
          <CharString index="26">
            192 528 66 9 rlineto
            60 -240 -60 vlineto
            76 -9 -99 -283 rlineto
            23 vlineto
            -89 260 67 9 rlineto
            60 -281 -56 vlineto
            73 -13 162 -427 rlineto
            18 hlineto
            -26 -74 rlineto
            return
          </CharString>
          <CharString index="27">
            -19 callgsubr
            -9 callgsubr
            hintmask 10111001
            80 18 rlineto
            hintmask 11011001
            59 callgsubr
            hintmask 10111001
            -57 vlineto
            hintmask 11011001
            -92 callgsubr
            hintmask 10111001
            74 19 rlineto
            hintmask 11011001
            62 callsubr
            hintmask 10111001
            -56 vlineto
            endchar
          </CharString>
          <CharString index="28">
            rmoveto
            -55 321 56 vlineto
            hintmask 01011000
            -110 16 rlineto
            328 vlineto
            1 5 10 4 10 hhcurveto
            15 11 -3 -3 10 hvcurveto
            74 -23 rlineto
            1 32 34 42 42 -21 15 -34 -44 -72 -64 0 hvcurveto
            hintmask 01101000
            -34 56 -55 callgsubr
            -335 vlineto
            return
          </CharString>
          <CharString index="29">
            -20 callsubr
            -321 -72 callgsubr
          </CharString>
          <CharString index="30">
            958 rmoveto
            -35 -42 39 -30 71 31 100 -26 rlineto
            -7 24 13 -2 20 hhcurveto
            28 30 5 35 29 hvcurveto
            35 42 -38 29 -72 -30 -100 26 rlineto
            7 -24 -13 1 -20 hhcurveto
            -29 -29 -4 -35 -29 hvcurveto
            -16 -246 -103 callgsubr
            return
          </CharString>
          <CharString index="31">
            121 90 71 100 28 -10 35 -22 31 hvcurveto
            25 12 -17 -15 25 hvcurveto
            13 7 28 23 35 vvcurveto
            31 -16 18 -35 -35 -46 -27 -14 -17 vhcurveto
            return
          </CharString>
          <CharString index="32">
            -97 callsubr
            -27 -20 -27 -29 -25 vhcurveto
            66 -33 -63 41 -101 hhcurveto
            -7 callgsubr
            return
          </CharString>
          <CharString index="33">
            -13 callgsubr
            -9 12 23 -21 17 hhcurveto
            21 19 20 11 14 hvcurveto
            120 100 -29 42 -139 -62 rlineto
            return
          </CharString>
          <CharString index="34">
            71 212 104 callsubr
            return
          </CharString>
          <CharString index="35">
            rmoveto
            144 -434 rlineto
            131 hlineto
            91 339 100 -339 rlineto
            129 hlineto
            hintmask 11010000
            140 434 66 12 rlineto
            57 -232 -60 vlineto
            74 -9 -87 -282 -7 -41 -6 41 -84 351 rlineto
            -141 hlineto
            -87 -351 -7 -41 -6 41 -80 282 69 9 rlineto
            60 -267 -56 vlineto
            endchar
          </CharString>
          <CharString index="36">
            -75 callsubr
            hintmask 11110000
            188 60 134 143 36 -4 34 -9 30 hvcurveto
            hintmask 11101000
            98 61 28 50 40 vvcurveto
            hintmask 11110000
            -344 -452 rmoveto
            -95 -12 57 126 126 13 55 89 78 16 -53 -128 -113 -8 -70 -81 hvcurveto
            endchar
          </CharString>
          <CharString index="37">
            -59 callsubr
            hintmask 11010100
            -67 27 -53 14 55 vvcurveto
            53 25 28 83 -55 callsubr
            -141 111 -31 93 -41 hvcurveto
            hintmask 11101000
            114 -50 12 -13 -47 vvcurveto
            -47 -29 -40 -91 -76 -43 43 0 vhcurveto
            -21 103 rlineto
            endchar
          </CharString>
          <CharString index="38">
            47 31 38 43 44 -31 27 -40 -43 -35 -37 -42 -43 30 -30 41 hvcurveto
            return
          </CharString>
          <CharString index="39">
            rmoveto
            -56 319 vlineto
            191 132 131 201 212 -120 104 -209 hvcurveto
            -313 hlineto
            return
          </CharString>
          <CharString index="40">
            -49 176 23 rlineto
            58 vlineto
            -81 16 rlineto
            596 vlineto
            -37 14 -176 -16 rlineto
            -58 vlineto
            81 -23 rlineto
            -109 vlineto
            9 -9 -4 -3 rlineto
            13 -19 -32 15 -48 hhcurveto
            -115 -106 -89 -199 hvcurveto
            return
          </CharString>
          <CharString index="41">
            rmoveto
            9 hlineto
            -107 callgsubr
            return
          </CharString>
          <CharString index="42">
            vvcurveto
            -49 41 -25 56 66 41 51 0 vhcurveto
            -24 41 rlineto
            -11 -18 -19 -9 -15 hhcurveto
            -26 -9 15 19 return
          </CharString>
          <CharString index="43">
            48 callsubr
            53 -18 69 hhcurveto
            155 28 67 71 hvcurveto
            453 -97 callgsubr
            -453 vlineto
            -35 -8 -20 -48 -22 -13 7 0 vhcurveto
            return
          </CharString>
          <CharString index="44">
            132 -20 rlineto
            43 -7 7 -19 -24 vvcurveto
            -29 -29 -21 -84 -84 -26 18 40 27 9 21 9 18 vhcurveto
            return
          </CharString>
          <CharString index="45">
            45 callsubr
            42 vlineto
            100 -190 22 -41 rlineto
            -26 14 15 -7 30 hhcurveto
            150 56 hlineto
            -74 17 -124 214 rlineto
            82 30 50 59 89 vvcurveto
            143 -87 40 -160 vhcurveto
            -282 hlineto
            return
          </CharString>
          <CharString index="46">
            hstemhm
            115 142 return
          </CharString>
          <CharString index="47">
            rmoveto
            -23 -119 rlineto
            -10 -22 -37 -13 -49 hhcurveto
            -109 -54 45 209 197 41 66 121 hvcurveto
            hintmask 11110000
            46 38 -11 -7 22 hvcurveto
            21 -105 rlineto
            75 105 callgsubr
            -79 -29 callsubr
            hintmask 11101000
            120 72 38 callgsubr
          </CharString>
          <CharString index="48">
            69 callsubr
            76 -35 113 hhcurveto
            116 127 47 165 117 -91 47 -114 46 hvcurveto
            return
          </CharString>
          <CharString index="49">
            rmoveto
            -13 -83 rlineto
            346 hlineto
            13 83 rlineto
            return
          </CharString>
          <CharString index="50">
            23 -23 29 -6 rlineto
            16 -3 7 -6 -14 vvcurveto
            -21 -15 -4 -20 -25 -17 5 4 -9 vhcurveto
            endchar
          </CharString>
          <CharString index="51">
            rmoveto
            -37 callsubr
            284 -432 rlineto
            123 return
          </CharString>
          <CharString index="52">
            43 33 -10 -9 22 vhcurveto
            -41 callsubr
            return
          </CharString>
          <CharString index="53">
            74 -18 87 504 75 -56 56 return
          </CharString>
          <CharString index="54">
            69 callgsubr
            hstem
            35 163 310 164 vstem
            return
          </CharString>
          <CharString index="55">
            rmoveto
            -69 callsubr
            return
          </CharString>
          <CharString index="56">
            -53 callgsubr
            -15 callsubr
            return
          </CharString>
          <CharString index="57">
            rmoveto
            -28 -66 72 -31 29 69 rlineto
            hintmask 10011100
            -7 30 32 -4 35 hhcurveto
            209 122 146 207 152 -54 101 -98 47 hvcurveto
            23 54 -70 31 -27 -61 rlineto
            hintmask 10101100
            5 -25 -27 2 -28 hhcurveto
            -206 -125 -146 -207 hvcurveto
            hintmask 01101100
            -144 48 -98 88 -50 vhcurveto
            hintmask 10101100
            238 551 rmoveto
            -183 -424 rlineto
            -19 44 -9 62 86 vvcurveto
            185 48 57 102 23 20 -4 -6 18 vhcurveto
            -127 -490 rmoveto
            188 437 rlineto
            26 -43 12 -68 -99 vvcurveto
            -186 -46 -58 -102 -30 -26 5 12 -22 vhcurveto
            endchar
          </CharString>
          <CharString index="58">
            -55 callgsubr
            -340 vlineto
            return
          </CharString>
          <CharString index="59">
            rmoveto
            -31 -70 66 -29 32 75 rlineto
            hintmask 10011100
            -4 21 23 -3 26 hhcurveto
            188 60 134 143 101 -32 80 -72 40 hvcurveto
            26 59 -64 29 -29 -66 rlineto
            hintmask 10101100
            3 -17 -18 2 -19 hhcurveto
            -184 -71 -133 -138 hvcurveto
            hintmask 01101100
            -105 27 -77 68 -41 vhcurveto
            hintmask 10101100
            177 406 rmoveto
            -123 -283 rlineto
            -6 28 -1 34 43 vvcurveto
            126 13 55 89 10 10 -1 -2 8 vhcurveto
            -76 -352 rmoveto
            130 297 rlineto
            9 -29 3 -40 -54 vvcurveto
            -113 -8 -70 -81 -22 -17 3 6 -14 vhcurveto
            endchar
          </CharString>
          <CharString index="60">
            -68 callsubr
            hintmask 1000111001000000
            -47 callgsubr
            602 1 rmoveto
            -76 508 vlineto
            hintmask 0101011001000000
            178 -70 vlineto
            hintmask 1001011001000000
            -21 -102 rlineto
            -247 11 hlineto
            hintmask 1001011110000000
            332 485 rlineto
            76 -493 vlineto
            hintmask 1010011100000000
            -178 70 vlineto
            hintmask 1001011110000000
            20 102 rlineto
            233 -13 hlineto
            -760 -483 rmoveto
            -32 496 52 hlineto
            109 96 -27 -202 -213 -44 -54 -181 hvcurveto
            endchar
          </CharString>
          <CharString index="61">
            18 -29 -37 11 -48 hhcurveto
            -120 -94 -58 -120 -60 37 -70 85 -20 hvcurveto
            return
          </CharString>
          <CharString index="62">
            rmoveto
            -30 callsubr
            return
          </CharString>
          <CharString index="63">
            713 rmoveto
            50 -46 147 126 -2 11 -2 13 -5 10 rlinecurve
            36 -16 -25 10 -19 hhcurveto
            -27 -10 -19 -27 -20 hvcurveto
            return
          </CharString>
          <CharString index="64">
            -66 0 55 182 73 121 68 -53 53 hstemhm
            95 132 73 235 -176 210 hintmask 11011010
            16 -41 callgsubr
            hintmask 11011100
            107 133 72 16 rlineto
            53 -235 -57 vlineto
            hintmask 11101100
            55 -11 rlineto
            -9 vlineto
            -90 -112 rlineto
            -38 353 hlineto
            -27 36 -185 -23 rlineto
            -53 vlineto
            80 -16 rlineto
            -538 vlineto
            endchar
          </CharString>
          <CharString index="65">
            -42 -12 88 -61 -21 47 35 430 -20 hstemhm
            55 -30 callgsubr
            hintmask 01111100
            55 494 rmoveto
            -643 vlineto
            38 -14 71 10 -11 125 -1 5 -2 8 -3 9 rlinecurve
            hintmask 10011100
            -4 16 19 -2 22 hhcurveto
            hintmask 01111100
            81 63 53 0 hvcurveto
            13 hlineto
            87 callgsubr
            411 vlineto
            -38 14 -94 -12 rlineto
            hintmask 10011100
            -400 vlineto
            0 -31 -18 115 callgsubr
            rlineto
            endchar
          </CharString>
          <CharString index="66">
            28 callsubr
            10 -35 -82 15 -75 hhcurveto
            -145 -90 -78 -113 return
          </CharString>
          <CharString index="67">
            45 callsubr
            44 vlineto
            100 -190 22 -41 rlineto
            -26 14 15 -7 30 hhcurveto
            141 56 hlineto
            -74 17 -118 212 rlineto
            82 30 51 61 89 vvcurveto
            143 -87 40 -160 vhcurveto
            -282 hlineto
            return
          </CharString>
          <CharString index="68">
            -91 -15 -76 -43 -90 vvcurveto
            return
          </CharString>
          <CharString index="69">
            71 47 39 14 14 hvcurveto
            return
          </CharString>
          <CharString index="70">
            22 callsubr
            372 4 vlineto
            4 -15 return
          </CharString>
          <CharString index="71">
            -12 -32 callsubr
            return
          </CharString>
          <CharString index="72">
            -751 -104 callgsubr
            322 186 rmoveto
            -152 hlineto
            return
          </CharString>
          <CharString index="73">
            -59 callsubr
            hintmask 11010100
            -67 27 -53 20 49 vvcurveto
            53 19 28 89 -55 callsubr
            -136 111 -40 93 -37 hvcurveto
            hintmask 11101000
            0 callgsubr
            endchar
          </CharString>
          <CharString index="74">
            691 -105 callgsubr
            return
          </CharString>
          <CharString index="75">
            88 148 58 callsubr
            return
          </CharString>
          <CharString index="76">
            88 -64 -21 515 -20 return
          </CharString>
          <CharString index="77">
            -55 281 55 vlineto
            return
          </CharString>
          <CharString index="78">
            17 -88 hhcurveto
            -191 -132 -149 -201 -212 99 -122 201 hvcurveto
            return
          </CharString>
          <CharString index="79">
            -128 rmoveto
            -20 -47 12 -6 rlineto
            -8 16 26 -5 30 hhcurveto
            return
          </CharString>
          <CharString index="80">
            142 196 142 return
          </CharString>
          <CharString index="81">
            hintmask 01010101
            178 -70 vlineto
            hintmask 10011001
            -21 -102 rlineto
            -247 11 hlineto
            hintmask 10010110
            332 485 rlineto
            76 -493 vlineto
            hintmask 10100101
            -178 70 vlineto
            hintmask 10010110
            20 102 rlineto
            233 -13 hlineto
            endchar
          </CharString>
          <CharString index="82">
            -21 callsubr
            hstemhm
            9 119 -107 139 -76 118 86 139 -76 123 return
          </CharString>
          <CharString index="83">
            550 rmoveto
            46 -31 139 153 rlineto
            47 -13 -36 21 -24 hhcurveto
            -24 -14 -22 -30 -14 hvcurveto
            return
          </CharString>
          <CharString index="84">
            -47 callgsubr
            172 265 rmoveto
            -30 hlineto
            return
          </CharString>
          <CharString index="85">
            76 -56 -44 callgsubr
            return
          </CharString>
          <CharString index="86">
            -130 -166 70 269 72 189 74 -70 82 return
          </CharString>
          <CharString index="87">
            rmoveto
            -104 callsubr
            225 hmoveto
            -104 callsubr
            hintmask 10111001
            return
          </CharString>
          <CharString index="88">
            117 callsubr
            75 34 43 51 50 -28 40 -74 -78 -32 -46 -50 vhcurveto
            107 -40 rmoveto
            -22 -11 5 39 32 8 10 23 21 12 -5 -37 -33 -8 -11 -23 hvcurveto
            return
          </CharString>
          <CharString index="89">
            -33 callgsubr
            hintmask 11011100
            -83 callgsubr
            -200 -84 -77 84 -221 vlineto
            174 1 rmoveto
            -32 220 119 77 -119 hlineto
            hintmask 11101100
            199 52 vlineto
            109 96 -27 -202 hvcurveto
            hintmask 11011100
            -213 -44 -54 -181 vhcurveto
            endchar
          </CharString>
          <CharString index="90">
            -68 42 -62 104 vhcurveto
            return
          </CharString>
          <CharString index="91">
            rmoveto
            -80 callgsubr
            295 vlineto
            hintmask 10111100
            80 18 rlineto
            hintmask 11011100
            59 callgsubr
            hintmask 10111100
            -57 vlineto
            39 callgsubr
            hintmask 11011100
            62 callsubr
            hintmask 10111100
            -56 vlineto
            endchar
          </CharString>
          <CharString index="92">
            hstemhm
            87 -30 callgsubr
            return
          </CharString>
          <CharString index="93">
            -206 166 return
          </CharString>
          <CharString index="94">
            19 rlineto
            56 return
          </CharString>
          <CharString index="95">
            -122 -36 callsubr
            hstem
            20 9 callgsubr
            return
          </CharString>
          <CharString index="96">
            -238 0 56 536 82 callsubr
            vstem
            return
          </CharString>
          <CharString index="97">
            670 rmoveto
            26 12 -7 -16 -18 -13 -9 -12 -8 hvcurveto
            13 callgsubr
            12 callgsubr
            69 8 rlineto
            -1 4 0 4 2 vvcurveto
            13 9 3 26 15 vhcurveto
            36 21 13 25 27 vvcurveto
            51 -48 28 -82 -58 -21 -14 -21 -8 3 -14 16 -18 vhcurveto
            5 18 18 3 18 hhcurveto
            return
          </CharString>
          <CharString index="98">
            79 -18 -2 -295 rlineto
            -170 -1 -26 -39 -101 hhcurveto
            -111 -35 34 175 hvcurveto
            295 vlineto
            return
          </CharString>
          <CharString index="99">
            -38 -165 83 110 88 390 -20 hstemhm
            72 70 -55 -30 callgsubr
            hintmask 11101100
            return
          </CharString>
          <CharString index="100">
            15 callsubr
            248 vlineto
            return
          </CharString>
          <CharString index="101">
            -8 0 80 409 159 0 -20 hstemhm
            20 570 hintmask 10110000
            267 648 rmoveto
            -247 -648 rlineto
            570 78 hlineto
            -225 570 rlineto
            76 -568 rmoveto
            -297 hlineto
            hintmask 11010000
            144 385 88 callgsubr
          </CharString>
          <CharString index="102">
            vlineto
            -37 14 -175 -81 callgsubr
            80 -16 rlineto
            return
          </CharString>
          <CharString index="103">
            0 56 517 -5 callgsubr
            return
          </CharString>
          <CharString index="104">
            77 -18 83 150 87 290 56 57 callsubr
            return
          </CharString>
          <CharString index="105">
            82 42 31 59 46 -27 13 -41 10 hvcurveto
            -21 5 rlineto
            return
          </CharString>
          <CharString index="106">
            -130 -36 callsubr
            hstem
            27 9 callgsubr
            return
          </CharString>
          <CharString index="107">
            35 -15 callgsubr
            return
          </CharString>
          <CharString index="108">
            -111 -35 34 175 vhcurveto
            24 callsubr
          </CharString>
          <CharString index="109">
            -53 callgsubr
            75 152 hstemhm
            87 132 -106 52 callgsubr
            -107 132 hintmask 10111001
            return
          </CharString>
          <CharString index="110">
            -70 callgsubr
            497 111 vlineto
            hintmask 11001100
            31 callgsubr
            hintmask 10111100
            188 -553 vlineto
            hintmask 11011100
            -188 66 vlineto
            hintmask 10101100
            46 callsubr
            endchar
          </CharString>
          <CharString index="111">
            -7 0 55 366 90 -5 -20 hstemhm
            100 70 callgsubr
            hintmask 10111000
            return
          </CharString>
          <CharString index="112">
            0 11 2 14 36 72 -25 0 vhcurveto
            0 40 15 46 vvcurveto
            51 -41 11 -48 return
          </CharString>
          <CharString index="113">
            -161 75 -72 114 73 43 30 23 22 vhcurveto
            return
          </CharString>
          <CharString index="114">
            -299 112 callsubr
            return
          </CharString>
          <CharString index="115">
            25 -215 rlineto
            56 hlineto
            23 128 rlineto
            2 12 7 40 11 vvcurveto
            26 -15 13 -40 -28 -30 -15 0 vhcurveto
            return
          </CharString>
          <CharString index="116">
            -14 76 364 85 return
          </CharString>
          <CharString index="117">
            192 528 66 9 rlineto
            60 -240 -60 vlineto
            76 -9 -101 -289 rlineto
            42 vlineto
            -87 247 61 callgsubr
          </CharString>
          <CharString index="118">
            -18 83 -44 -21 278 56 248 84 return
          </CharString>
          <CharString index="119">
            -7 4 -9 7 -11 vhcurveto
            return
          </CharString>
          <CharString index="120">
            56 hlineto
            18 callgsubr
          </CharString>
          <CharString index="121">
            18 13 16 hvcurveto
            120 100 -29 42 -139 -62 rlineto
            return
          </CharString>
          <CharString index="122">
            28 -45 175 23 rlineto
            58 vlineto
            -79 16 rlineto
            return
          </CharString>
          <CharString index="123">
            -29 -27 -12 -28 -17 hvcurveto
            return
          </CharString>
          <CharString index="124">
            -136 rmoveto
            -24 41 rlineto
            -11 -18 -19 -9 -15 hhcurveto
            -26 -9 15 19 50 71 47 0 hvcurveto
            -58 hlineto
            -48 -22 -58 -44 -63 vvcurveto
            -49 41 -25 56 66 41 51 0 vhcurveto
            endchar
          </CharString>
          <CharString index="125">
            16 callgsubr
            endchar
          </CharString>
          <CharString index="126">
            rmoveto
            -54 254 56 vlineto
            -75 9 rlineto
            30 65 68 -65 182 vlineto
            -72 26 -204 -221 32 -54 rlineto
            143 -31 hlineto
            98 vmoveto
            -70 6 hlineto
            70 80 rlineto
            endchar
          </CharString>
          <CharString index="127">
            -175 -68 callgsubr
            return
          </CharString>
          <CharString index="128">
            -17 -121 rlineto
            -181 hlineto
            -16 182 rlineto
            91 hlineto
            29 -76 rlineto
            53 hlineto
            -20 221 rlineto
            -53 hlineto
            -16 -69 rlineto
            -91 hlineto
            -20 231 43 7 rlineto
            121 hlineto
            return
          </CharString>
          <CharString index="129">
            -56 259 56 vlineto
            -80 19 rlineto
            return
          </CharString>
          <CharString index="130">
            -1 callgsubr
            173 76 47 callgsubr
            return
          </CharString>
          <CharString index="131">
            295 vlineto
            hintmask 10111000
            74 19 rlineto
            hintmask 11011000
            62 callsubr
            hintmask 10111000
            -56 vlineto
            endchar
          </CharString>
          <CharString index="132">
            -152 0 76 344 76 hstem
            27 71 263 75 vstem
            return
          </CharString>
          <CharString index="133">
            622 45 callgsubr
            -56 56 hstemhm
            115 142 257 163 49 75 callsubr
            hintmask 1001011000000000
            return
          </CharString>
          <CharString index="134">
            -80 -19 rlineto
            -88 callgsubr
            return
          </CharString>
          <CharString index="135">
            21 -104 rlineto
            69 182 hlineto
            return
          </CharString>
          <CharString index="136">
            hstemhm
            83 142 return
          </CharString>
          <CharString index="137">
            -74 -17 82 121 callgsubr
            39 86 callgsubr
            return
          </CharString>
          <CharString index="138">
            -101 -30 52 96 -1 hvcurveto
            245 hlineto
            31 16 15 69 90 -40 111 -157 -141 -96 -99 -172 -18 callgsubr
            hvcurveto
            return
          </CharString>
          <CharString index="139">
            85 10 49 40 0 vvcurveto
            61 vlineto
            0 -62 -22 -64 -118 -20 59 140 137 41 37 70 39 23 -17 0 vhcurveto
            17 -87 rlineto
            73 return
          </CharString>
          <CharString index="140">
            20 21 91 108 78 vvcurveto
            44 -29 31 -45 -39 -22 -23 -27 -13 vhcurveto
            16 -16 15 -25 -35 vvcurveto
            -31 -12 -55 -19 -54 vhcurveto
            endchar
          </CharString>
          <CharString index="141">
            rmoveto
            20 19 91 97 73 vvcurveto
            41 -29 32 -45 -39 -22 -23 -27 -13 vhcurveto
            16 -16 15 -26 -32 vvcurveto
            -29 -12 -47 -19 -46 vhcurveto
            endchar
          </CharString>
          <CharString index="142">
            92 callgsubr
            16 22 14 callsubr
            return
          </CharString>
          <CharString index="143">
            vlineto
            -73 14 rlineto
            return
          </CharString>
          <CharString index="144">
            rmoveto
            -19 -19 -88 -97 -73 vvcurveto
            -41 29 -32 44 37 22 23 26 12 vhcurveto
            -17 15 -15 23 32 vvcurveto
            29 12 50 20 48 vhcurveto
            return
          </CharString>
          <CharString index="145">
            -14 callsubr
            40 return
          </CharString>
          <CharString index="146">
            rmoveto
            -76 -147 56 -35 99 109 rlineto
            14 16 37 45 13 vvcurveto
            17 -36 41 -16 18 vhcurveto
            -98 109 -56 -35 rlineto
            return
          </CharString>
          <CharString index="147">
            -37 callgsubr
            endchar
          </CharString>
          <CharString index="148">
            hstemhm
            -30 566 -240 240 return
          </CharString>
          <CharString index="149">
            416 -12 88 -76 76 -63 -21 428 76 -70 83 hstemhm
            30 83 callgsubr
            118 71 263 75 return
          </CharString>
          <CharString index="150">
            rmoveto
            -292 56 vlineto
            35 139 rlineto
            13 53 9 40 36 vvcurveto
            26 -15 13 -40 -20 -21 -6 -9 -17 vhcurveto
            endchar
          </CharString>
          <CharString index="151">
            15 callgsubr
            hintmask 10011000
            return
          </CharString>
          <CharString index="152">
            -70 callgsubr
            189 return
          </CharString>
          <CharString index="153">
            27 112 rlineto
            114 -497 hlineto
            return
          </CharString>
          <CharString index="154">
            rmoveto
            -83 callgsubr
            return
          </CharString>
          <CharString index="155">
            -178 vlineto
            -15 24 return
          </CharString>
          <CharString index="156">
            -122 -14 callsubr
            28 -32 callsubr
            hstemhm
            20 142 10 163 -19 138 hintmask 01111010
            return
          </CharString>
          <CharString index="157">
            -19 -86 rlineto
            -180 hlineto
            262 340 rlineto
            80 -397 -149 71 vlineto
            22 73 rlineto
            143 hlineto
            endchar
          </CharString>
          <CharString index="158">
            -18 96 callgsubr
            return
          </CharString>
          <CharString index="159">
            vhcurveto
            295 vlineto
            return
          </CharString>
          <CharString index="160">
            55 -55 69 437 95 callsubr
            return
          </CharString>
          <CharString index="161">
            rlineto
            -295 vlineto
            return
          </CharString>
          <CharString index="162">
            hhcurveto
            74 5 -30 -53 hvcurveto
            -271 vlineto
            -70 -14 rlineto
            -55 276 55 36 callsubr
            298 vlineto
            return
          </CharString>
          <CharString index="163">
            rmoveto
            -151 -8 rlineto
            78 3 15 59 70 hhcurveto
            58 8 -31 -66 -8 -1 -12 -2 -12 hvcurveto
            endchar
          </CharString>
          <CharString index="164">
            29 callsubr
            -133 70 return
          </CharString>
          <CharString index="165">
            69 133 83 return
          </CharString>
          <CharString index="166">
            97 -14 callsubr
            22 83 517 84 55 callgsubr
            74 163 73 164 hintmask 01110100
            return
          </CharString>
          <CharString index="167">
            -10 -14 callsubr
            28 -31 callsubr
            hstemhm
            87 132 -1 163 -1 132 return
          </CharString>
          <CharString index="168">
            81 callsubr
            99 callgsubr
          </CharString>
          <CharString index="169">
            56 -296 vlineto
            return
          </CharString>
          <CharString index="170">
            644 rmoveto
            114 callgsubr
            -96 -115 rcurveline
            36 -43 rlineto
            return
          </CharString>
          <CharString index="171">
            -297 223 96 hstem
            35 230 vstem
            35 310 rmoveto
            -87 230 105 vlineto
            endchar
          </CharString>
          <CharString index="172">
            vlineto
            27 callsubr
            return
          </CharString>
          <CharString index="173">
            45 callgsubr
            hstemhm
            return
          </CharString>
          <CharString index="174">
            228 vlineto
            0 22 4 32 86 19 -37 -70 vhcurveto
            return
          </CharString>
          <CharString index="175">
            -4 callgsubr
            344 vlineto
            return
          </CharString>
          <CharString index="176">
            rmoveto
            48 callsubr
            return
          </CharString>
          <CharString index="177">
            149 96 149 return
          </CharString>
          <CharString index="178">
            rmoveto
            -93 150 -150 97 150 153 93 -153 157 -97 -157 vlineto
            return
          </CharString>
          <CharString index="179">
            rmoveto
            -108 vlineto
            -12 23 69 -12 39 hhcurveto
            107 64 46 67 53 -30 24 -32 10 hvcurveto
            return
          </CharString>
          <CharString index="180">
            322 vlineto
            6 15 27 9 33 hhcurveto
            69 29 -39 -128 -141 -37 -41 -75 return
          </CharString>
          <CharString index="181">
            -69 callsubr
            endchar
          </CharString>
          <CharString index="182">
            70 253 170 -64 70 return
          </CharString>
          <CharString index="183">
            56 536 56 return
          </CharString>
          <CharString index="184">
            272 0 76 -76 197 -15 15 57 80 126 188 -76 76 hstemhm
            return
          </CharString>
          <CharString index="185">
            rmoveto
            -44 31 -27 40 43 35 37 42 43 -30 30 -41 -47 -31 -38 -43 vhcurveto
            return
          </CharString>
          <CharString index="186">
            795 rmoveto
            99 callsubr
            71 39 100 -33 rlineto
            -8 24 13 -3 20 hhcurveto
            return
          </CharString>
          <CharString index="187">
            -70 -14 76 -48 -21 433 85 -5 -20 hstemhm
            30 -27 callsubr
            return
          </CharString>
          <CharString index="188">
            -70 14 rlineto
            423 vlineto
            -37 14 return
          </CharString>
          <CharString index="189">
            56 hstem
            115 142 return
          </CharString>
          <CharString index="190">
            163 -135 132 return
          </CharString>
          <CharString index="191">
            rmoveto
            -62 300 130 -61 vlineto
            -11 -54 rlineto
            -94 4 hlineto
            42 31 rlineto
            return
          </CharString>
          <CharString index="192">
            87 504 75 -56 56 29 callsubr
            return
          </CharString>
          <CharString index="193">
            -249 -156 855 hstem
            135 90 vstem
            135 699 rmoveto
            return
          </CharString>
          <CharString index="194">
            471 675 rlineto
            -472 -300 rmoveto
            118 42 70 91 hvcurveto
            return
          </CharString>
          <CharString index="195">
            -13 callsubr
            vlineto
            endchar
          </CharString>
          <CharString index="196">
            70.5 103.5 112 -104 120 return
          </CharString>
          <CharString index="197">
            -195 -18 83 527 56 hstem
            0 70 117 142 vstem
            return
          </CharString>
          <CharString index="198">
            24 143 46 81.5 62.5 73 return
          </CharString>
          <CharString index="199">
            138 hlineto
            hintmask 1011001110000000
            return
          </CharString>
          <CharString index="200">
            rmoveto
            -94 395 94 vlineto
            return
          </CharString>
          <CharString index="201">
            25 -112 rlineto
            68 hlineto
            return
          </CharString>
          <CharString index="202">
            120 callgsubr
            hstemhm
            return
          </CharString>
          <CharString index="203">
            188 -76 76 hstemhm
            8 66 141 142 138 66 return
          </CharString>
          <CharString index="204">
            142 68 callgsubr
            return
          </CharString>
          <CharString index="205">
            0 60.5 -39.5 -21 96 67 return
          </CharString>
          <CharString index="206">
            -35 -53 39 -37 return
          </CharString>
          <CharString index="207">
            53 callsubr
            70 163 return
          </CharString>
          <CharString index="208">
            -14 66 190 66 35 66 190 66 0 -20 hstemhm
            return
          </CharString>
          <CharString index="209">
            76 364 85 hstemhm
            25 142 return
          </CharString>
          <CharString index="210">
            94 callgsubr
            vstem
            92 return
          </CharString>
          <CharString index="211">
            3 24 rlineto
            5 hlineto
            3 -24 rlineto
            return
          </CharString>
          <CharString index="212">
            -506 rmoveto
            -55 vlineto
            return
          </CharString>
          <CharString index="213">
            vlineto
            hintmask 01110101
            185 -66 vlineto
            hintmask 10110110
            -23 -102 rlineto
            return
          </CharString>
          <CharString index="214">
            86 -59 -21 47 33 352 83 36 callgsubr
            return
          </CharString>
          <CharString index="215">
            535 196 hstem
            -212 212 vstem
            -212 return
          </CharString>
          <CharString index="216">
            -206 260 87 -105 vvcurveto
            -48 -16 -19 -68 -45 return
          </CharString>
          <CharString index="217">
            -142 -74 -80 -120 return
          </CharString>
          <CharString index="218">
            hstemhm
            -8 674 return
          </CharString>
          <CharString index="219">
            0 55 -55 69 return
          </CharString>
          <CharString index="220">
            hlineto
            hintmask 11011100
            -47 callgsubr
            return
          </CharString>
          <CharString index="221">
            262 hstem
            52 112 55 112 vstem
            57 return
          </CharString>
          <CharString index="222">
            -100 14 rlineto
            110 vlineto
            -9 9 3 3 rlineto
            return
          </CharString>
          <CharString index="223">
            -80 21 -21 502 -20 hstem
            32 479 vstem
            return
          </CharString>
          <CharString index="224">
            649 rmoveto
            -51 28 -37 75 return
          </CharString>
          <CharString index="225">
            hintmask 10111000
            80 18 rlineto
            return
          </CharString>
          <CharString index="226">
            -11 vhcurveto
            -24 80 rlineto
            return
          </CharString>
          <CharString index="227">
            126 -98 69 return
          </CharString>
          <CharString index="228">
            93 29 callsubr
            276 100 hintmask 11011100
            return
          </CharString>
          <CharString index="229">
            671 184 hstem
            -394 394 vstem
            return
          </CharString>
          <CharString index="230">
            530 211 hstem
            -354 356 vstem
            return
          </CharString>
          <CharString index="231">
            55 -4 callgsubr
            return
          </CharString>
          <CharString index="232">
            vhcurveto
            hintmask 1110010100000000
            return
          </CharString>
        <CharString name=".notdef">
          -410 endchar
        </CharString>
        <CharString name="A">
          -94 callgsubr
          hstemhm
          -8 256 -256 674 hintmask 00000000
          hintmask 11011000
          -8 62 -104 callgsubr
          322 186 rmoveto
          -152 hlineto
          hintmask 11100100
          -73 callsubr
          endchar
        </CharString>
        <CharString name="AE">
          77 callsubr
          -4 255 176 142 hintmask 10110111
          -4 62 50 callgsubr
          hintmask 01010111
          -18 197 rlineto
          -64 hlineto
          hintmask 10110111
          21 callsubr
          hintmask 10111011
          37 48 callgsubr
          hintmask 10110111
          41 callgsubr
        </CharString>
        <CharString name="AEacute">
          77 callsubr
          427 142 hintmask 10110110
          419 721 -102 callsubr
          -566 -758 50 callgsubr
          hintmask 01010110
          -18 197 rlineto
          -64 hlineto
          hintmask 10110110
          21 callsubr
          hintmask 10111010
          37 48 callgsubr
          hintmask 10110110
          41 callgsubr
        </CharString>
        <CharString name="Aacute">
          -94 callgsubr
          111 callsubr
          hintmask 11011000
          188 721 -102 callsubr
          -339 -758 -104 callgsubr
          320 186 rmoveto
          -150 hlineto
          hintmask 11101000
          -73 callsubr
          endchar
        </CharString>
        <CharString name="Abreve">
          -94 callgsubr
          61 93 82 callgsubr
          213 851 -98 callgsubr
          -221 -789 -104 callgsubr
          320 186 rmoveto
          -150 hlineto
          hintmask 11101100
          -73 callsubr
          endchar
        </CharString>
        <CharString name="Acircumflex">
          -94 callgsubr
          111 callsubr
          hintmask 11011000
          148 712 -103 callgsubr
          -278 -751 -104 callgsubr
          320 186 rmoveto
          -150 hlineto
          hintmask 11101000
          -73 callsubr
          endchar
        </CharString>
        <CharString name="Adieresis">
          -94 callgsubr
          60 152 hstemhm
          121 70 callsubr
          hintmask 11011110
          191 695 rmoveto
          -104 callsubr
          245 hmoveto
          -104 callsubr
          -444 -633 -104 callgsubr
          320 186 rmoveto
          -150 hlineto
          hintmask 11101110
          -73 callsubr
          endchar
        </CharString>
        <CharString name="Agrave">
          -94 callgsubr
          111 callsubr
          hintmask 11011000
          193 739 -98 callsubr
          -201 -677 -104 callgsubr
          330 186 rmoveto
          -160 hlineto
          hintmask 11101000
          -73 callsubr
          endchar
        </CharString>
        <CharString name="Amacron">
          -94 callgsubr
          88 83 82 callgsubr
          152 806 -58 callsubr
          -506 -744 -104 callgsubr
          320 186 rmoveto
          -150 hlineto
          hintmask 11101100
          -73 callsubr
          endchar
        </CharString>
        <CharString name="Aogonek">
          67 -187 72 115 67.5 123.5 80 225 159 0 -20 hstemhm
          -8 256 72 93 hintmask 11101110
          -8 62 rmoveto
          -62 256 62 vlineto
          -82 11 42 118 rlineto
          207 hlineto
          40 -117 -58 -12 rlineto
          -62 vlineto
          -40 -24 -37 -38 -51 -65 callsubr
          33 29 31 21 17 hvcurveto
          227 61 hlineto
          -69 13 -225 581 rlineto
          -127 hlineto
          -211 -581 rlineto
          338 197 rmoveto
          -159 hlineto
          hintmask 11110110
          72 201 88 callgsubr
        </CharString>
        <CharString name="Aring">
          -94 callgsubr
          34 55 70 55 hstemhm
          218 71 64 71 hintmask 00000000
          hintmask 11011111
          218 756 rmoveto
          -45 25 -42 75 75 31 47 46 44 -25 43 -74 -78 -29 -48 -45 vhcurveto
          104 -32 rmoveto
          -22 -11 0 36 29 8 5 23 24 9 -2 -32 -26 -5 -10 -26 hvcurveto
          -330 -662 rmoveto
          -62 256 62 vlineto
          -83 11 36 107 rlineto
          203 hlineto
          34 -106 -79 -12 rlineto
          -62 307 61 vlineto
          -69 13 rlineto
          hintmask 11010111
          -217 581 rlineto
          -121 hlineto
          -201 -581 rlineto
          320 186 rmoveto
          -150 hlineto
          hintmask 11100111
          -73 callsubr
          endchar
        </CharString>
        <CharString name="Aringacute">
          43 0 67.5 112.5 80 395 -20 139 52 hstemhm
          -8 256 -24 76 53 77 hintmask 11110110
          498 917 rmoveto
          3 11 3 13 11 vvcurveto
          55 -38 15 -18 -15 -19 -14 -10 -18 vhcurveto
          -143 -99 25 -50 rlineto
          319 -775 rmoveto
          -217 581 rlineto
          -10 hlineto
          42 14 18 35 35 vvcurveto
          44 -25 43 -74 -78 -29 -48 -45 -34 14 -31 39 -13 vhcurveto
          -18 hlineto
          hintmask 11111010
          -201 -581 -66 -12 rlineto
          -62 256 62 vlineto
          -83 11 36 107 rlineto
          203 hlineto
          34 -106 -79 -12 rlineto
          -62 307 61 vlineto
          hintmask 11110110
          -340 713 rmoveto
          25 2 -6 -36 -23 -1 -11 -24 -22 -6 3 36 29 3 8 23 hvcurveto
          -98 -514 rmoveto
          71 212 3 24 rlineto
          5 hlineto
          3 -24 70 -212 rlineto
          endchar
        </CharString>
        <CharString name="Atilde">
          -94 callgsubr
          111 callsubr
          hintmask 11011000
          168 -95 callsubr
          -176 -733 -104 callgsubr
          320 186 rmoveto
          -150 hlineto
          hintmask 11101000
          -73 callsubr
          endchar
        </CharString>
        <CharString name="B">
          27 0 76 215 76 205 -22 callsubr
          166 150 -128 152 hintmask 11101010
          35 56 rmoveto
          -56 325 vlineto
          107 130 43 161 75 -48 42 -72 23 hvcurveto
          hintmask 11101100
          55 33 41 48 56 vvcurveto
          127 -102 40 -160 vhcurveto
          -276 113 callsubr
          177 292 rmoveto
          -35 hlineto
          hintmask 11101100
          201 vlineto
          0 27 4 28 77 34 -37 -63 vhcurveto
          hintmask 11011100
          -79 -66 -26 -65 vhcurveto
          -35 -290 rmoveto
          214 36 vlineto
          hintmask 11101010
          78 74 -18 -87 -76 -46 -34 -105 hvcurveto
          hintmask 11011100
          -14 -13 0 1 -10 hvcurveto
          endchar
        </CharString>
        <CharString name="C">
          -4 28 callgsubr
          75 -70 74 hintmask 11101000
          492 207 -60 callsubr
        </CharString>
        <CharString name="Cacute">
          -5 28 callgsubr
          72 -67 71 hintmask 11101000
          242 721 -102 callsubr
          107 -613 rmoveto
          -23 -119 rlineto
          -10 -22 -37 -13 -49 hhcurveto
          -109 -54 45 209 197 41 66 121 hvcurveto
          hintmask 11110000
          46 38 -11 -7 22 hvcurveto
          21 -105 rlineto
          72 105 callgsubr
          -76 -29 callsubr
          hintmask 11101000
          120 69 38 callgsubr
        </CharString>
        <CharString name="Cacute.loclPLK">
          -4 28 callgsubr
          75 -70 74 hintmask 11101000
          322 -44 callsubr
          99 -620 -60 callsubr
        </CharString>
        <CharString name="Ccaron">
          -5 28 callgsubr
          72 -67 71 hintmask 11101000
          206 844 -13 callgsubr
          -11 17 21 -19 14 hhcurveto
          15 20 16 13 16 hvcurveto
          123 102 -29 42 -139 -62 rlineto
          139 -575 rmoveto
          -23 -119 rlineto
          -10 -22 -37 -13 -49 hhcurveto
          -109 -54 45 209 197 41 66 121 hvcurveto
          hintmask 11110000
          46 38 -11 -7 22 hvcurveto
          21 -105 rlineto
          72 105 callgsubr
          -76 -29 callsubr
          hintmask 11101000
          120 69 38 callgsubr
        </CharString>
        <CharString name="Ccedilla">
          -5 -194 53 124 82 517 84 55 callgsubr
          167 92 30 72 -67 71 hintmask 11111010
          269 -28 callsubr
          -2 callsubr
          13 vlineto
          99 4 61 24 35 16 rrcurveto
          180 -71 vlineto
          -23 -119 rlineto
          -10 -22 -37 -13 -49 hhcurveto
          -109 -54 45 209 197 41 66 121 hvcurveto
          hintmask 11111100
          46 38 -11 -7 22 hvcurveto
          21 -105 rlineto
          72 105 callgsubr
          -76 17 -88 hhcurveto
          -191 -132 -149 -201 -204 91 -120 185 -9 hvcurveto
          hintmask 11111010
          -21 -47 -57 callsubr
        </CharString>
        <CharString name="Ccircumflex">
          -4 28 callgsubr
          75 -70 74 hintmask 11101000
          184 712 -103 callgsubr
          186 -606 -60 callsubr
        </CharString>
        <CharString name="Cdotaccent">
          -4 51 callsubr
          25 166 55 callgsubr
          78 163 48 75 -70 74 hintmask 00000000
          hintmask 11111010
          353 -33 callsubr
          139 -484 rmoveto
          -23 -119 rlineto
          -10 -22 -37 -13 -49 hhcurveto
          -109 -54 45 209 hvcurveto
          hintmask 11010100
          197 41 66 121 46 38 -11 -7 22 vhcurveto
          21 -105 rlineto
          75 105 callgsubr
          -79 -29 callsubr
          hintmask 11010010
          120 72 38 callgsubr
        </CharString>
        <CharString name="D">
          102 0 76 496 -22 callsubr
          257 163 hintmask 11011000
          3 callgsubr
          hintmask 10111000
          -47 callgsubr
          174 1 rmoveto
          -32 hlineto
          hintmask 11011000
          75 callgsubr
          hintmask 10111000
          -213 -44 -54 -181 vhcurveto
          endchar
        </CharString>
        <CharString name="Dcaron">
          102 0 76 496 -22 callsubr
          257 163 hintmask 11011000
          200 33 callgsubr
          -312 -726 -68 callsubr
          hintmask 10111000
          -47 callgsubr
          174 1 rmoveto
          -32 hlineto
          hintmask 11011000
          75 callgsubr
          hintmask 10111000
          -213 -44 -54 -181 vhcurveto
          endchar
        </CharString>
        <CharString name="Dcroat">
          97 0 76 220 77 199 -22 callsubr
          257 163 hintmask 11101100
          35 -18 callsubr
        </CharString>
        <CharString name="E">
          -29 0 79 callgsubr
          124 53 30 68 -57 66 hintmask 1010101101000000
          35 56 -90 callgsubr
        </CharString>
        <CharString name="Eacute">
          -29 0 79 callgsubr
          124 53 32 66 -55 64 hintmask 1010101101000000
          197 721 -102 callsubr
          -305 -764 -77 callgsubr
        </CharString>
        <CharString name="Ebreve">
          -73 callgsubr
          48 93 44 callgsubr
          202 851 -98 callgsubr
          -167 -795 -62 callgsubr
        </CharString>
        <CharString name="Ecaron">
          -29 0 79 callgsubr
          124 53 32 66 -55 64 hintmask 1010101101000000
          171 35 callsubr
          -283 -726 -77 callgsubr
        </CharString>
        <CharString name="Ecircumflex">
          -29 0 79 callgsubr
          124 53 32 66 -55 64 hintmask 1010101101000000
          118 712 -103 callgsubr
          -205 -757 -77 callgsubr
        </CharString>
        <CharString name="Edieresis">
          -73 callgsubr
          47 152 hstemhm
          94 149 -128 142 82 149 -107 53 32 66 -55 64 hintmask 0000000000000000
          hintmask 1010101101000000
          164 695 rmoveto
          -104 callsubr
          245 hmoveto
          -104 callsubr
          -374 -639 rmoveto
          -56 vlineto
          hintmask 1010100010101000
          506 hlineto
          hintmask 0110100010101000
          197 -64 vlineto
          hintmask 1010100010110000
          -28 -100 callgsubr
          138 hlineto
          hintmask 1011000010110000
          31 callgsubr
          hintmask 1010100010110000
          188 -497 vlineto
          hintmask 1010010010101000
          62 callgsubr
        </CharString>
        <CharString name="Edotaccent">
          -73 callgsubr
          43 166 -61 callsubr
          -37 163 -2 53 32 66 -55 64 hintmask 0000000000000000
          hintmask 1010101010010000
          297 -33 callsubr
          -262 -635 rmoveto
          -56 506 vlineto
          hintmask 0110100101010000
          197 -64 vlineto
          hintmask 1010100101100000
          -28 -100 callgsubr
          138 hlineto
          hintmask 1011000101100000
          31 callgsubr
          hintmask 1010100101100000
          188 -497 vlineto
          hintmask 1010010101010000
          62 callgsubr
        </CharString>
        <CharString name="Egrave">
          -29 0 79 callgsubr
          124 53 32 66 -55 64 hintmask 1010101101000000
          159 739 -98 callsubr
          -124 -683 -77 callgsubr
        </CharString>
        <CharString name="Emacron">
          -73 callgsubr
          75 83 -14 callgsubr
          32 66 -55 64 hintmask 1010101110100000
          125 806 -58 callsubr
          -436 -750 rmoveto
          -56 506 vlineto
          hintmask 0110101110100000
          197 -64 vlineto
          hintmask 1010101111000000
          -28 -100 callgsubr
          138 hlineto
          hintmask 1011001111000000
          31 callgsubr
          hintmask 1010101111000000
          188 -497 vlineto
          hintmask 1010011110100000
          62 callgsubr
        </CharString>
        <CharString name="Eng">
          77 callgsubr
          450 648 rmoveto
          -57 vlineto
          hintmask 11011000
          80 -18 rlineto
          -355 -4 vlineto
          -4 15 rlineto
          hintmask 10111000
          -263 415 rlineto
          -210 -61 hlineto
          hintmask 11011000
          95 callgsubr
          -80 -19 rlineto
          -37 callsubr
          275 -418 rlineto
          -91 vlineto
          -102 -23 rlineto
          -51 vlineto
          0 48 -18 64 83 39 37 53 vhcurveto
          79 vlineto
          573 vlineto
          118 callsubr
          57 vlineto
          endchar
        </CharString>
        <CharString name="Eogonek">
          -19 -187 72 115 76 214 76 94 188 -76 -22 callsubr
          90 93 -59 53 32 66 -55 64 hintmask 0110101010100000
          35 56 rmoveto
          -56 vlineto
          hintmask 1110101100100000
          388 hlineto
          -40 -24 -36 -38 -51 -65 callsubr
          33 29 31 21 17 hvcurveto
          51 197 -64 hlineto
          -28 -121 rlineto
          -192 214 hlineto
          hintmask 0110101011000000
          102 hlineto
          22 -76 rlineto
          53 221 -53 hlineto
          -22 -69 rlineto
          -102 199 hlineto
          44 7 rlineto
          138 hlineto
          hintmask 0111001011000000
          31 callgsubr
          hintmask 0110101011000000
          188 -497 vlineto
          hintmask 0110011010100000
          62 callgsubr
        </CharString>
        <CharString name="Eth">
          111 0 76 220 77 199 76 -56 56 hstemhm
          124 142 257 163 hintmask 11101100
          44 -18 callsubr
        </CharString>
        <CharString name="Euro">
          -85 -18 83 169 77 47 77 147 84 hstemhm
          428 75 -70 74 hintmask 11110100
          387 435 rmoveto
          -189 hlineto
          hintmask 11111000
          97 22 49 50 62 hhcurveto
          22 24 -6 -12 31 hvcurveto
          20 -105 rlineto
          75 180 hlineto
          16 -54 -64 11 -47 hhcurveto
          -136 -106 -93 -138 -40 hvcurveto
          -31 hlineto
          -27 -77 rlineto
          362 hlineto
          hintmask 11110100
          73 -151 rmoveto
          -16 -118 rlineto
          -15 -37 -35 -9 -28 hhcurveto
          -73 -39 63 106 -13 hvcurveto
          126 hlineto
          27 77 rlineto
          -332 hlineto
          -27 -77 rlineto
          59 hlineto
          -161 26 103 -91 156 hhcurveto
          66 59 16 29 52 hvcurveto
          180 vlineto
          endchar
        </CharString>
        <CharString name="Euro.osf">
          -85 -18 77 95 77 47 77 95 81 -22 -20 hstemhm
          437 62 -58 61 hintmask 11101010
          45 355 rmoveto
          -27 -77 rlineto
          332 hlineto
          27 77 rlineto
          -150 hlineto
          hintmask 11110100
          75 16 35 20 66 hhcurveto
          35 25 -5 -6 16 hvcurveto
          17 -85 rlineto
          62 hlineto
          hintmask 11101100
          155 vlineto
          hintmask 11110100
          9 -30 -48 13 -88 hhcurveto
          -118 -89 -71 -105 -36 hvcurveto
          -87 -124 rmoveto
          -27 -77 rlineto
          108 hlineto
          -131 42 65 -41 145 hhcurveto
          hintmask 11101010
          79 56 22 14 31 hvcurveto
          152 -61 vlineto
          -19 -97 rlineto
          -8 -15 -21 -6 -37 hhcurveto
          -62 -43 13 82 -17 hvcurveto
          81 hlineto
          27 77 rlineto
          endchar
        </CharString>
        <CharString name="F">
          -73 0 56 218 75 111 188 -76 -22 callsubr
          141 53 3 68 hintmask 11010110
          0 callsubr
          199 119 vlineto
          22 -77 rlineto
          53 221 -53 hlineto
          -22 -69 rlineto
          -119 216 hlineto
          44 7 rlineto
          hintmask 11010101
          128 hlineto
          hintmask 11100101
          94 callsubr
          hintmask 11010101
          188 -487 vlineto
          hintmask 11001110
          62 callgsubr
        </CharString>
        <CharString name="G">
          -28 callgsubr
          441 259 -95 callgsubr
        </CharString>
        <CharString name="G_tilde.loclGUA">
          -28 callgsubr
          208 -95 callsubr
          233 -536 -95 callgsubr
        </CharString>
        <CharString name="Gbreve">
          43 11 callsubr
          30 93 55 callgsubr
          243 142 -81 72 hintmask 00000000
          hintmask 10111110
          226 851 -98 callgsubr
          215 -592 rmoveto
          -181 vlineto
          -7 -19 -27 -6 -34 hhcurveto
          -109 -54 59 198 hvcurveto
          hintmask 10110101
          178 55 82 132 46 31 -10 -9 19 vhcurveto
          21 -108 rlineto
          72 180 hlineto
          10 -39 -59 21 -92 hhcurveto
          -207 -142 -129 -229 -212 99 -114 201 hvcurveto
          hintmask 10110110
          79 50 21 23 37 hvcurveto
          9 hlineto
          hintmask 01110110
          23 -26 rlineto
          50 259 hlineto
          50 -13 callsubr
          -272 -56 vlineto
          endchar
        </CharString>
        <CharString name="Gcaron">
          -28 callgsubr
          227 844 -74 callsubr
          67 -523 -95 callgsubr
        </CharString>
        <CharString name="Gcircumflex">
          -28 callgsubr
          194 712 -103 callgsubr
          125 -554 -95 callgsubr
        </CharString>
        <CharString name="Gcommaaccent">
          43 11 callsubr
          55 callgsubr
          118 98 27 142 -81 72 hintmask 10111010
          441 259 rmoveto
          -181 vlineto
          -7 -19 -27 -6 -34 hhcurveto
          -109 -54 59 198 178 55 82 132 hvcurveto
          hintmask 10111001
          46 31 -10 -9 19 hvcurveto
          21 -108 rlineto
          72 180 hlineto
          10 -39 -59 21 -92 hhcurveto
          -207 -142 -129 -229 -212 99 -114 201 hvcurveto
          hintmask 10111010
          79 50 21 23 37 hvcurveto
          9 hlineto
          hintmask 01111010
          23 -26 rlineto
          50 259 hlineto
          50 -13 callsubr
          -272 -56 vlineto
          hintmask 10111110
          -59 -490 -96 callsubr
        </CharString>
        <CharString name="Gdotaccent">
          38 11 callsubr
          25 166 55 callgsubr
          88 163 -8 142 -81 75 hintmask 0000000000000000
          hintmask 1011111000000000
          363 -33 callsubr
          hintmask 1011010100000000
          78 -432 rmoveto
          -181 vlineto
          -7 -19 -27 -6 -34 hhcurveto
          -109 -54 59 198 178 55 82 132 hvcurveto
          hintmask 1011010010000000
          46 31 -10 -9 19 hvcurveto
          21 -108 rlineto
          75 180 hlineto
          10 -39 -62 21 -92 hhcurveto
          -207 -142 -129 -229 -212 99 -114 201 hvcurveto
          hintmask 1011010100000000
          79 50 21 23 37 hvcurveto
          9 hlineto
          hintmask 0111010100000000
          23 -26 rlineto
          50 259 hlineto
          50 -13 callsubr
          -272 -56 vlineto
          endchar
        </CharString>
        <CharString name="H">
          152 0 56 240 77 219 82 callsubr
          248 -10 callgsubr
          endchar
        </CharString>
        <CharString name="Hbar">
          152 0 56 200 77 84 77 98 82 callsubr
          248 142 vstem
          731 417 rmoveto
          77 -84 79 -97 callgsubr
          -79 -248 79 -97 callgsubr
          -79 -84 -77 84 -342 65 callsubr
          181 248 -181 65 callsubr
          342 vlineto
          -142 -84 rmoveto
          -248 84 248 hlineto
          endchar
        </CharString>
        <CharString name="Hcircumflex">
          152 0 56 240 77 219 82 callsubr
          248 142 vstem
          207 712 -103 callgsubr
          -294 -757 -70 callgsubr
          221 248 -221 vlineto
          -80 -19 rlineto
          -91 callgsubr
          -200 -248 200 14 callgsubr
        </CharString>
        <CharString name="I">
          -238 0 56 536 56 hstem
          115 142 vstem
          35 56 -87 callgsubr
          endchar
        </CharString>
        <CharString name="IJ">
          49 callgsubr
          35 56 -87 callgsubr
          hintmask 00111110
          257 118 rmoveto
          hintmask 10011110
          -64 callsubr
          hintmask 00111110
          -26 121 rlineto
          endchar
        </CharString>
        <CharString name="Iacute">
          -11 callsubr
          60 721 -102 callsubr
          -168 -764 -87 callgsubr
          endchar
        </CharString>
        <CharString name="Iacute_J.loclNLD">
          49 callgsubr
          110 721 -102 callsubr
          301 -99 -102 callsubr
          -662 -764 -87 callgsubr
          hintmask 00111110
          257 118 rmoveto
          hintmask 10011110
          -64 callsubr
          hintmask 00111110
          -26 121 rlineto
          endchar
        </CharString>
        <CharString name="Ibreve">
          -238 29 callgsubr
          48 93 hstem
          115 142 vstem
          76 851 -98 callgsubr
          -41 -795 -87 callgsubr
          endchar
        </CharString>
        <CharString name="Icircumflex">
          -11 callsubr
          12 712 rmoveto
          27 -41 141 62 148 -62 31 50 -121 93 -16 12 -18 17 -15 1 rlinecurve
          -4 hlineto
          -5 -11 -2 -29 -35 hvcurveto
          -99 -757 -87 callgsubr
          endchar
        </CharString>
        <CharString name="Idieresis">
          -238 29 callgsubr
          47 152 hstemhm
          -11 149 -23 142 -23 149 hintmask 00000000
          hintmask 11110100
          59 695 rmoveto
          -104 callsubr
          245 hmoveto
          -104 callsubr
          -269 -639 rmoveto
          -56 vlineto
          hintmask 11101000
          302 13 callsubr
        </CharString>
        <CharString name="Idotaccent">
          -238 29 callgsubr
          43 166 hstemhm
          103 163 -151 142 hintmask 00000000
          hintmask 11110000
          180 -33 callsubr
          -145 -635 rmoveto
          -56 vlineto
          hintmask 11101000
          302 13 callsubr
        </CharString>
        <CharString name="Igrave">
          -11 callsubr
          58 739 -98 callsubr
          -23 -683 -87 callgsubr
          endchar
        </CharString>
        <CharString name="Imacron">
          -238 29 callgsubr
          90 83 hstem
          115 142 vstem
          19 821 -58 callsubr
          -330 -765 -87 callgsubr
          endchar
        </CharString>
        <CharString name="Iogonek">
          -238 -187 72 115 56 536 -44 callgsubr
          -124 93 hintmask 00000000
          hintmask 11101000
          35 56 rmoveto
          -56 174 vlineto
          -40 -24 -36 -38 -51 -65 callsubr
          33 29 31 21 17 hvcurveto
          hintmask 11110000
          61 13 callsubr
        </CharString>
        <CharString name="Itilde">
          -11 callsubr
          26 -95 callsubr
          9 -739 -87 callgsubr
          endchar
        </CharString>
        <CharString name="J">
          90 callsubr
          193 vmoveto
          -64 callsubr
          -26 121 rlineto
          endchar
        </CharString>
        <CharString name="Jcircumflex">
          90 callsubr
          84 712 -103 callgsubr
          -206 -620 rmoveto
          -64 callsubr
          -26 121 rlineto
          endchar
        </CharString>
        <CharString name="K">
          24 0 56 235 65 236 82 callsubr
          135 233 vstem
          -16 callgsubr
          endchar
        </CharString>
        <CharString name="Kcommaaccent">
          37 0 56 235 65 236 -44 callgsubr
          46 98 -9 233 hintmask 11110100
          -16 callgsubr
          hintmask 11111000
          174 -287 -96 callsubr
        </CharString>
        <CharString name="L">
          -87 0 76 -76 188 404 -44 callgsubr
          195 66 hintmask 10111000
          118 callgsubr
          hintmask 01111000
          188 -66 vlineto
          hintmask 10111000
          -50 callgsubr
          endchar
        </CharString>
        <CharString name="Lacute">
          -76 0 76 -76 188 404 -44 callgsubr
          195 66 hintmask 10111000
          91 721 -102 callsubr
          -199 -764 119 callgsubr
          hintmask 01111000
          188 -66 vlineto
          hintmask 10111000
          -50 callgsubr
          endchar
        </CharString>
        <CharString name="Lcaron">
          -76 0 76 -76 188 404 -44 callgsubr
          195 66 hintmask 10111000
          41 33 callgsubr
          -153 -726 119 callgsubr
          hintmask 01111000
          188 -66 vlineto
          hintmask 10111000
          -50 callgsubr
          endchar
        </CharString>
        <CharString name="Lcommaaccent">
          -76 0 76 -76 188 404 -44 callgsubr
          -11 98 108 66 hintmask 10110100
          118 callgsubr
          hintmask 01110100
          188 -66 vlineto
          hintmask 10110100
          -50 callgsubr
          hintmask 10101100
          117 -287 -96 callsubr
        </CharString>
        <CharString name="Ldot">
          -87 0 76 -76 188 108 152 144 -44 callgsubr
          56 149 -10 66 hintmask 10111010
          118 callgsubr
          hintmask 01111010
          188 -66 vlineto
          hintmask 10111100
          -50 callgsubr
          269 221 rmoveto
          74 callsubr
        </CharString>
        <CharString name="Lslash">
          -87 0 76 -76 188 404 -44 callgsubr
          195 66 hintmask 10111000
          118 callgsubr
          hintmask 01111000
          188 -66 vlineto
          hintmask 10111000
          -27 -112 rlineto
          -117 hlineto
          -51 7 rlineto
          255 vlineto
          89 32 rlineto
          64 vlineto
          -89 -33 rlineto
          172 -97 callgsubr
          -224 vlineto
          -75 -27 rlineto
          -60 vlineto
          75 26 rlineto
          -213 vlineto
          endchar
        </CharString>
        <CharString name="M">
          268 0 56 400 192 -74 74 -61 61 hstemhm
          112 99 411 141 hintmask 10101100
          32 56 rmoveto
          22 callsubr
          hintmask 11001100
          357 vlineto
          -2 24 rlineto
          6 hlineto
          143 -456 rlineto
          121 hlineto
          135 432 5 24 rlineto
          5 hlineto
          -2 -24 rlineto
          -357 vlineto
          -80 -19 rlineto
          -56 301 56 vlineto
          -80 19 rlineto
          hintmask 10101100
          499 vlineto
          hintmask 10011100
          68 12 rlineto
          hintmask 10101100
          62 -242 vlineto
          -147 -469 -5 -31 -3 31 -144 469 rlineto
          -244 hlineto
          hintmask 10011100
          -61 vlineto
          hintmask 10101100
          95 callgsubr
          endchar
        </CharString>
        <CharString name="N">
          77 callgsubr
          35 56 -85 callsubr
        </CharString>
        <CharString name="Nacute">
          124 -4 callsubr
          265 721 -102 callsubr
          -373 -764 -85 callsubr
        </CharString>
        <CharString name="Nacute.loclPLK">
          77 callgsubr
          329 -44 callsubr
          -365 -771 -85 callsubr
        </CharString>
        <CharString name="Ncaron">
          124 -4 callsubr
          263 871 -99 callsubr
          -343 -740 -85 callsubr
        </CharString>
        <CharString name="Ncommaaccent">
          124 0 56 517 75 -57 57 112 callgsubr
          117 98 101 99 hintmask 10110100
          35 56 -56 callsubr
          hlineto
          hintmask 11010100
          573 vlineto
          hintmask 10110100
          103 callgsubr
          hintmask 11010100
          80 -18 rlineto
          -355 -4 vlineto
          -4 15 rlineto
          hintmask 10110100
          -263 415 rlineto
          -210 -61 hlineto
          hintmask 11011100
          95 callgsubr
          202 -287 -96 callsubr
        </CharString>
        <CharString name="Ntilde">
          124 -4 callsubr
          215 10 callgsubr
          -180 -739 -85 callsubr
        </CharString>
        <CharString name="O">
          -53 callsubr
          341 -18 -106 callgsubr
          endchar
        </CharString>
        <CharString name="OE">
          310 0 76 -76 79 -79 197 93 76 94 188 -81 81 -76 76 55 callgsubr
          256 142 124 53 32 66 -55 64 hintmask 1001001111010000
          788 76 rmoveto
          -192 214 102 hlineto
          22 -76 rlineto
          53 221 -53 hlineto
          -22 -69 rlineto
          -102 199 hlineto
          44 7 rlineto
          hintmask 1001001111100000
          138 hlineto
          hintmask 1001100111100000
          31 callgsubr
          hintmask 1001001111100000
          188 -506 vlineto
          -206 -124 -128 -207 -218 114 -95 196 hvcurveto
          hintmask 1001001111010000
          535 hlineto
          hintmask 0011010111010000
          197 -64 vlineto
          -362 362 rmoveto
          hintmask 0101010111010000
          -472 vlineto
          -5 -27 -34 -3 -35 hhcurveto
          -111 -49 59 202 185 70 42 87 hvcurveto
          hintmask 0011010111010000
          52 33 -5 -3 14 hvcurveto
          endchar
        </CharString>
        <CharString name="Oacute">
          -53 callsubr
          238 721 -102 callsubr
          -40 -838 -106 callgsubr
          endchar
        </CharString>
        <CharString name="Oacute.loclPLK">
          -53 callsubr
          318 -44 callsubr
          -48 -845 -106 callgsubr
          endchar
        </CharString>
        <CharString name="Obreve">
          69 callgsubr
          30 93 55 callgsubr
          310 164 hintmask 00000000
          hintmask 11111000
          244 851 -98 callgsubr
          97 -869 rmoveto
          209 122 146 207 hvcurveto
          hintmask 11011000
          218 -110 113 -196 -206 -125 -146 -207 vhcurveto
          hintmask 11111000
          -218 110 -113 196 vhcurveto
          19 83 rmoveto
          -111 -51 73 202 hvcurveto
          hintmask 11011000
          185 48 57 102 110 50 -72 -201 vhcurveto
          hintmask 11111000
          -186 -46 -58 -102 vhcurveto
          endchar
        </CharString>
        <CharString name="Ocircumflex">
          -53 callsubr
          180 712 -103 callgsubr
          39 -831 -106 callgsubr
          endchar
        </CharString>
        <CharString name="Odieresis">
          69 callgsubr
          29 152 55 callgsubr
          -42 70 callsubr
          -42 164 hintmask 00000000
          hintmask 11101100
          226 695 rmoveto
          -104 callsubr
          245 hmoveto
          -104 callsubr
          hintmask 11010010
          -130 -713 -106 callgsubr
          endchar
        </CharString>
        <CharString name="Ograve">
          -53 callsubr
          226 739 -98 callsubr
          115 -757 -106 callgsubr
          endchar
        </CharString>
        <CharString name="Ohorn">
          5 callgsubr
          hintmask 00000000
          hintmask 11111100
          790 668 -91 callsubr
        </CharString>
        <CharString name="Ohungarumlaut">
          -53 callsubr
          177 713 -32 callgsubr
          91 -111 -32 callgsubr
          -125 -842 -106 callgsubr
          endchar
        </CharString>
        <CharString name="Omacron">
          69 callgsubr
          57 83 hstem
          35 163 310 164 vstem
          187 806 -58 callsubr
          -192 -824 -106 callgsubr
          endchar
        </CharString>
        <CharString name="Oslash">
          80 callgsubr
          hintmask 00000000
          hintmask 01101100
          171 21 -50 callsubr
        </CharString>
        <CharString name="Oslashacute">
          80 callgsubr
          hintmask 10101100
          206 721 -102 callsubr
          hintmask 01101100
          -178 -799 -50 callsubr
        </CharString>
        <CharString name="Otilde">
          -53 callsubr
          196 10 callgsubr
          145 -813 -106 callgsubr
          endchar
        </CharString>
        <CharString name="P">
          -27 0 56 205 49 262 -22 callsubr
          166 150 hintmask 11101100
          257 75 rmoveto
          493 vlineto
          0 27 4 28 77 34 -41 -70 -99 -29 -41 -95 -11 vhcurveto
          5 -47 rlineto
          -1 12 13 -1 11 hhcurveto
          128 105 69 131 143 -85 44 -171 hvcurveto
          -282 113 callsubr
          -80 -19 rlineto
          -56 302 56 vlineto
          endchar
        </CharString>
        <CharString name="Q">
          97 -162 85 98 -21 582 84 hstem
          35 163 310 164 vstem
          358 -43 rmoveto
          149 -91 rlineto
          -20 29 30 -8 36 hhcurveto
          50 56 34 0 hvcurveto
          51 -105 vlineto
          -146 77 rlineto
          137 45 78 129 161 vvcurveto
          213 -110 118 -196 -206 -125 -151 -202 -188 83 -115 156 -23 vhcurveto
          45 -7 25 -14 14 -9 rrcurveto
          2 108 rmoveto
          -111 -51 74 198 188 47 57 102 110 51 -77 -181 -206 -46 -53 -102 hvcurveto
          endchar
        </CharString>
        <CharString name="R">
          17 0 56 208 76 232 -22 callsubr
          158 149 hintmask 11101100
          35 56 -62 callsubr
          hintmask 11011100
          -23 callsubr
          hintmask 11101100
          109 callgsubr
          hintmask 11011100
          -84 -47 -41 -81 vhcurveto
          endchar
        </CharString>
        <CharString name="Racute">
          26 0 56 208 76 232 -22 callsubr
          159 148 hintmask 11101100
          202 721 -102 callsubr
          -310 -764 -40 callsubr
          hintmask 11011100
          -23 callsubr
          hintmask 11101100
          67 callsubr
          hintmask 11011100
          -84 -48 -41 -81 vhcurveto
          endchar
        </CharString>
        <CharString name="Rcaron">
          26 0 56 208 76 232 -22 callsubr
          159 148 hintmask 11101100
          173 35 callsubr
          -285 -726 -40 callsubr
          hintmask 11011100
          -23 callsubr
          hintmask 11101100
          67 callsubr
          hintmask 11011100
          -84 -48 -41 -81 vhcurveto
          endchar
        </CharString>
        <CharString name="Rcommaaccent">
          26 0 56 208 76 232 -22 callsubr
          30 98 31 148 hintmask 11101010
          35 56 -40 callsubr
          hintmask 11011010
          -23 callsubr
          hintmask 11101010
          67 callsubr
          hintmask 11011010
          -84 -48 -41 -81 vhcurveto
          hintmask 11101110
          -14 -552 -96 callsubr
        </CharString>
        <CharString name="S">
          30 callsubr
          hintmask 00000000
          hintmask 11101000
          39 211 -70 callsubr
        </CharString>
        <CharString name="Sacute">
          66 callgsubr
          199 126 -98 69 hintmask 11011000
          158 721 -102 callsubr
          hintmask 11101000
          -259 -609 -34 callsubr
        </CharString>
        <CharString name="Sacute.loclPLK">
          30 callsubr
          hintmask 11011000
          232 -44 callsubr
          hintmask 11101000
          -264 -616 -70 callsubr
        </CharString>
        <CharString name="Scaron">
          66 callgsubr
          199 126 -98 69 hintmask 11011000
          135 844 -13 callgsubr
          -14 20 17 -16 14 hhcurveto
          17 22 14 callsubr
          hintmask 11101000
          -240 -571 -34 callsubr
        </CharString>
        <CharString name="Scedilla">
          -74 -194 53 125 81 -80 80 121 callgsubr
          42 70 -70 131 111 92 -4 120 callsubr
          hintmask 1101010100000000
          188 -28 callsubr
          hintmask 1011011000000000
          -2 callsubr
          15 vlineto
          hintmask 1011010100000000
          106 8 105 52 150 vvcurveto
          117 -91 47 -114 46 vhcurveto
          -67 27 -53 20 49 vvcurveto
          53 19 28 89 vhcurveto
          hintmask 1101010010000000
          43 33 -10 -9 22 hvcurveto
          -41 callsubr
          -136 111 -40 93 -37 hvcurveto
          hintmask 1101100100000000
          0 callgsubr
          -70 -178 hlineto
          hintmask 1101101000000000
          22 -14 67 -31 99 -4 -21 -48 rcurveline
          -57 callsubr
        </CharString>
        <CharString name="Scircumflex">
          30 callsubr
          hintmask 11011000
          94 712 -103 callgsubr
          hintmask 11101000
          -177 -602 -70 callsubr
        </CharString>
        <CharString name="Scommaaccent">
          66 callgsubr
          47 98 54 120 callsubr
          hintmask 00000000
          hintmask 11101100
          42 40 callgsubr
          hintmask 11011010
          -67 27 -53 20 49 vvcurveto
          53 19 28 89 -55 callsubr
          -136 111 -40 93 -37 hvcurveto
          hintmask 11101100
          0 callgsubr
          94 -423 -96 callsubr
        </CharString>
        <CharString name="T">
          -47 0 56 404 96 callsubr
          hintmask 10101100
          135 56 3 callsubr
        </CharString>
        <CharString name="Tbar">
          -47 0 56 240 77 87 96 callsubr
          hintmask 11010110
          468 572 rmoveto
          hintmask 11100110
          31 callgsubr
          hintmask 11011110
          188 -553 vlineto
          hintmask 11101110
          -188 66 vlineto
          hintmask 11010110
          27 112 rlineto
          114 -199 -184 -77 184 -221 hlineto
          27 callsubr
          221 175 77 -175 199 vlineto
          endchar
        </CharString>
        <CharString name="Tcaron">
          -37 0 51 callgsubr
          138 66 hintmask 10101100
          152 844 -74 callsubr
          -162 -726 3 callsubr
        </CharString>
        <CharString name="Thorn">
          -28 0 56 84 76 219 76 81 82 callsubr
          152 143 68 callgsubr
          65 36 vlineto
          151 108 61 143 112 -60 55 -153 hvcurveto
          -82 62 hlineto
          -96 callgsubr
          -498 vlineto
          173 141 rmoveto
          -31 216 hlineto
          1 10 17 2 17 hhcurveto
          77 31 -37 -64 -76 -32 -42 -89 hvcurveto
          endchar
        </CharString>
        <CharString name="U">
          74 -18 85 callsubr
          276 100 hintmask 11011000
          83 573 -76 callgsubr
        </CharString>
        <CharString name="Uacute">
          74 -18 85 callsubr
          275 101 hintmask 11011000
          243 721 -102 callsubr
          -303 -247 -60 callgsubr
        </CharString>
        <CharString name="Ubreve">
          -54 callsubr
          48 121 callsubr
          232 851 -98 callgsubr
          -149 -278 -16 callsubr
        </CharString>
        <CharString name="Ucircumflex">
          74 -18 85 callsubr
          275 101 hintmask 11011000
          187 712 -103 callgsubr
          -226 -240 -60 callgsubr
        </CharString>
        <CharString name="Udieresis">
          -54 callsubr
          47 152 29 callsubr
          -77 70 callsubr
          -42 101 hintmask 00000000
          hintmask 11010110
          218 695 -19 callgsubr
          -380 -122 23 callsubr
          hintmask 10111001
          80 18 rlineto
          hintmask 11011001
          59 callgsubr
          hintmask 10111001
          -57 vlineto
          hintmask 11011001
          78 -18 54 callsubr
          -170 -28 -39 -101 -58 callgsubr
          hintmask 10111001
          74 19 rlineto
          hintmask 11011001
          62 callsubr
          hintmask 10111001
          -56 vlineto
          endchar
        </CharString>
        <CharString name="Ugrave">
          74 -18 85 callsubr
          275 101 hintmask 11011000
          235 739 -98 callsubr
          -152 -166 -60 callgsubr
        </CharString>
        <CharString name="Uhorn">
          74 -18 85 callsubr
          276 100 30 106 hintmask 00000000
          hintmask 10111100
          737 718 -97 callsubr
          -31 -6 -8 -63 vhcurveto
          hintmask 10111000
          -154 -57 hlineto
          -63 callgsubr
          56 -296 -56 vlineto
          hintmask 11011000
          80 -19 rlineto
          -80 callgsubr
          298 vlineto
          hintmask 10111100
          57 callgsubr
          endchar
        </CharString>
        <CharString name="Uhungarumlaut">
          74 -18 85 callsubr
          275 101 hintmask 11011000
          175 713 -32 callgsubr
          91 -111 -32 callgsubr
          -381 -251 rmoveto
          -295 vlineto
          -218 64 -78 205 173 76 -11 callgsubr
          -9 callsubr
          hintmask 10111000
          74 19 rlineto
          hintmask 11011000
          62 callsubr
          hintmask 10111000
          -56 vlineto
          endchar
        </CharString>
        <CharString name="Umacron">
          -54 callsubr
          75 83 29 callsubr
          275 101 hintmask 11011100
          192 806 -58 callsubr
          -455 -233 23 callsubr
          hintmask 10111100
          80 18 rlineto
          hintmask 11011100
          59 callgsubr
          hintmask 10111100
          -57 vlineto
          hintmask 11011100
          -9 callsubr
          hintmask 10111100
          74 19 rlineto
          hintmask 11011100
          62 callsubr
          hintmask 10111100
          -56 vlineto
          endchar
        </CharString>
        <CharString name="Uogonek">
          74 -187 72 97 85 callsubr
          116 93 66 101 hintmask 11101110
          83 573 -1 callgsubr
          15 14 1 1 13 vhcurveto
          -29 -24 -24 -32 -41 -65 callsubr
          50 71 47 0 hvcurveto
          -6 hlineto
          70 43 32 84 135 vvcurveto
          295 vlineto
          hintmask 11011110
          80 18 rlineto
          hintmask 11101110
          59 callgsubr
          hintmask 11011110
          -57 vlineto
          hintmask 11101110
          -9 callsubr
          hintmask 11011110
          74 19 rlineto
          hintmask 11101110
          62 callsubr
          hintmask 11011110
          -56 vlineto
          endchar
        </CharString>
        <CharString name="Uring">
          -54 callsubr
          0 50 76 52 29 callsubr
          41 76 53 77 28 101 hintmask 0000000000000000
          hintmask 1001111110000000
          266 17 callgsubr
          hintmask 1100110010000000
          -287 -125 23 callsubr
          hintmask 1010110010000000
          80 18 rlineto
          hintmask 1100110110000000
          59 callgsubr
          hintmask 1010110110000000
          -57 vlineto
          hintmask 1100110010000000
          -9 callsubr
          hintmask 1010110010000000
          74 19 rlineto
          hintmask 1100110010000000
          62 callsubr
          hintmask 1010110010000000
          -56 vlineto
          endchar
        </CharString>
        <CharString name="Utilde">
          74 -18 85 callsubr
          276 100 hintmask 11011000
          182 -95 callsubr
          -99 -222 -76 callgsubr
        </CharString>
        <CharString name="V">
          12 -12 158 -137 -21 598 62 hstemhm
          -13 658 -246 246 hintmask 01110000
          55 574 rmoveto
          215 -586 rlineto
          110 hlineto
          hintmask 10101000
          199 586 66 12 rlineto
          62 -246 -62 vlineto
          83 -12 -131 -401 -4 -27 rlineto
          -5 hlineto
          -3 27 -121 393 rlineto
          8 vlineto
          79 12 rlineto
          62 -310 -61 vlineto
          endchar
        </CharString>
        <CharString name="W">
          4 callgsubr
          53 574 -82 callgsubr
        </CharString>
        <CharString name="Wacute">
          4 callgsubr
          429 721 -102 callsubr
          -519 -246 -82 callgsubr
        </CharString>
        <CharString name="Wcircumflex">
          4 callgsubr
          331 712 -103 callgsubr
          -400 -239 -82 callgsubr
        </CharString>
        <CharString name="Wdieresis">
          399 -12 162 436 62 47 152 hstem
          308 70 callsubr
          73 256 vstem
          378 695 rmoveto
          -104 callsubr
          245 hmoveto
          -104 callsubr
          -570 -121 rmoveto
          173 -586 rlineto
          128 hlineto
          153 485 2 24 rlineto
          5 hlineto
          4 -24 158 -485 rlineto
          128 hlineto
          163 586 64 12 rlineto
          62 -256 -62 vlineto
          86 -12 -98 -400 -4 -24 rlineto
          -5 hlineto
          -2 24 -149 474 rlineto
          -151 hlineto
          -140 -474 -4 -24 rlineto
          -5 hlineto
          -2 24 -95 400 82 12 rlineto
          62 -301 -61 vlineto
          endchar
        </CharString>
        <CharString name="Wgrave">
          4 callgsubr
          335 739 -98 callsubr
          -282 -165 -82 callgsubr
        </CharString>
        <CharString name="X">
          10 29 callgsubr
          hstemhm
          -3 245 149 245 hintmask 00000000
          hintmask 11110000
          -3 56 rmoveto
          -56 245 56 vlineto
          -56 14 rlineto
          12 vlineto
          114 159 105 -158 rlineto
          -12 vlineto
          -63 -15 rlineto
          -56 303 56 vlineto
          -72 17 -180 274 170 226 73 -13 callsubr
          -245 -56 vlineto
          67 -15 rlineto
          -10 vlineto
          -112 -149 -95 144 rlineto
          14 vlineto
          67 16 rlineto
          56 -311 -56 vlineto
          72 -17 173 -262 -171 -239 rlineto
          endchar
        </CharString>
        <CharString name="Y">
          -3 callgsubr
          162 56 6 callgsubr
          hintmask 11010000
          -92 callsubr
          hintmask 11100000
          18 callsubr
        </CharString>
        <CharString name="Y.loclGUA">
          -3 callsubr
          297 142 hintmask 11110100
          379 648 -93 callsubr
          hintmask 11101100
          -75 callgsubr
        </CharString>
        <CharString name="Yacute">
          -3 callgsubr
          200 721 -102 callsubr
          -181 -764 6 callgsubr
          hintmask 11010000
          -92 callsubr
          hintmask 11100000
          18 callsubr
        </CharString>
        <CharString name="Yacute.loclGUA">
          -3 callsubr
          129 8 160 142 hintmask 11110110
          266 721 -102 callsubr
          -30 -172 -93 callsubr
          hintmask 11101110
          -75 callgsubr
        </CharString>
        <CharString name="Ycircumflex">
          -3 callgsubr
          152 712 -103 callgsubr
          -112 -757 6 callgsubr
          hintmask 11010000
          -92 callsubr
          hintmask 11100000
          18 callsubr
        </CharString>
        <CharString name="Ycircumflex.loclGUA">
          -3 callsubr
          297 142 hintmask 11110100
          168 712 -103 callgsubr
          89 -165 -93 callsubr
          hintmask 11101100
          -75 callgsubr
        </CharString>
        <CharString name="Ydieresis">
          3 29 callgsubr
          47 152 hstemhm
          113 149 -20 142 -26 149 -122 247 hintmask 00000000
          hintmask 11110100
          183 695 rmoveto
          -104 callsubr
          245 hmoveto
          -104 callsubr
          -266 -639 rmoveto
          -56 vlineto
          hintmask 11101000
          302 56 hlineto
          -80 19 rlineto
          174 vlineto
          hintmask 11100010
          -92 callsubr
          hintmask 11101000
          18 callsubr
        </CharString>
        <CharString name="Ydieresis.loclGUA">
          77 -18 83 150 87 290 56 47 152 57 callsubr
          -17 70 callsubr
          -80 142 hintmask 0000000000000000
          hintmask 1111001100000000
          215 695 rmoveto
          -104 callsubr
          245 hmoveto
          -104 callsubr
          hintmask 1111100010000000
          -81 -47 -93 callsubr
          hintmask 1111010010000000
          -75 callgsubr
        </CharString>
        <CharString name="Ygrave">
          -3 callgsubr
          156 739 -98 callsubr
          6 -683 6 callgsubr
          hintmask 11010000
          -92 callsubr
          hintmask 11100000
          18 callsubr
        </CharString>
        <CharString name="Ygrave.loclGUA">
          -3 callsubr
          217 13 67 142 hintmask 11110110
          172 739 -98 callsubr
          207 -91 -93 callsubr
          hintmask 11101110
          -75 callgsubr
        </CharString>
        <CharString name="Z">
          -90 0 85 callgsubr
          253 170 -64 70 hintmask 00000000
          hintmask 10011001
          5 76 rmoveto
          -76 508 vlineto
          -26 callsubr
        </CharString>
        <CharString name="Zacute">
          30 callgsubr
          135 721 -102 callsubr
          hintmask 10011001
          -272 -744 117 callgsubr
          -26 callsubr
        </CharString>
        <CharString name="Zacute.loclPLK">
          -90 66 callsubr
          14 75 callsubr
          hintmask 10011010
          224 -44 callsubr
          -290 -751 rmoveto
          -76 508 vlineto
          hintmask 01011010
          178 -70 vlineto
          hintmask 10011010
          -21 -102 rlineto
          -247 11 hlineto
          hintmask 10011100
          332 485 rlineto
          76 -493 vlineto
          hintmask 10101010
          -178 70 vlineto
          hintmask 10011100
          20 102 rlineto
          233 -13 hlineto
          endchar
        </CharString>
        <CharString name="Zcaron">
          30 callgsubr
          150 871 -99 callsubr
          hintmask 10011001
          -259 -720 117 callgsubr
          -26 callsubr
        </CharString>
        <CharString name="Zdotaccent">
          -89 45 callgsubr
          43 166 hstemhm
          5.5 170.5 -161 70 94 163 -4 170 -64 70 hintmask 1001101101000000
          256 -33 callsubr
          hintmask 1001110001000000
          -250 -615 117 callgsubr
          hintmask 0101101101000000
          178 -70 vlineto
          hintmask 1001110001000000
          -21 -102 rlineto
          -247 11 hlineto
          hintmask 1001101010000000
          332 485 rlineto
          76 -493 vlineto
          hintmask 1010101101000000
          -178 70 vlineto
          hintmask 1001101010000000
          20 102 rlineto
          233 -13 hlineto
          endchar
        </CharString>
        <CharString name="a">
          -90 -12 107 callsubr
          133 132 hintmask 00000000
          hintmask 10010100
          311 41 rmoveto
          9 hlineto
          hintmask 01111100
          -107 callgsubr
          -39 callsubr
          hintmask 10011100
          -17 callsubr
          hintmask 10010100
          -38 callsubr
          hintmask 10011100
          -4 174 rmoveto
          -85 callgsubr
          -38 callgsubr
          hvcurveto
          endchar
        </CharString>
        <CharString name="aacute">
          -46 callgsubr
          160 -69 callgsubr
          55 -652 -66 callsubr
          -39 callsubr
          hintmask 10111000
          -17 callsubr
          hintmask 01111000
          -48 callgsubr
          hintmask 10111000
          -85 callgsubr
          hvcurveto
          hintmask 01111000
          -38 callgsubr
          vhcurveto
          endchar
        </CharString>
        <CharString name="abreve">
          -2 callgsubr
          159 719 -100 callsubr
          152 -678 -66 callsubr
          -39 callsubr
          hintmask 10111100
          -17 callsubr
          hintmask 01111100
          -48 callgsubr
          hintmask 10111100
          -85 callgsubr
          hvcurveto
          hintmask 01111100
          -38 callgsubr
          vhcurveto
          endchar
        </CharString>
        <CharString name="acircumflex">
          -46 callgsubr
          98 581 -105 callsubr
          112 -644 -66 callsubr
          -39 callsubr
          hintmask 10111000
          -17 callsubr
          hintmask 01111000
          -48 callgsubr
          hintmask 10111000
          -85 callgsubr
          hvcurveto
          hintmask 01111000
          -38 callgsubr
          vhcurveto
          endchar
        </CharString>
        <CharString name="acute">
          -398 535 196 hstem
          0 212 vstem
          578 vmoveto
          -84 callgsubr
          endchar
        </CharString>
        <CharString name="acutecomb">
          108 callsubr
          578 rmoveto
          -84 callgsubr
          endchar
        </CharString>
        <CharString name="acutecomb.case">
          671 173 hstem
          -251 251 vstem
          -251 721 -102 callsubr
          endchar
        </CharString>
        <CharString name="adieresis">
          -36 callgsubr
          52 152 36 callgsubr
          -111 52 callgsubr
          -130 132 hintmask 01110101
          133 561 rmoveto
          -104 callsubr
          hintmask 01110110
          225 hmoveto
          -104 callsubr
          -47 -520 rmoveto
          9 hlineto
          hintmask 01111001
          -107 callgsubr
          -39 callsubr
          hintmask 10111001
          -17 callsubr
          hintmask 01110110
          -38 callsubr
          hintmask 10111001
          -4 174 rmoveto
          -85 callgsubr
          -38 callgsubr
          hvcurveto
          endchar
        </CharString>
        <CharString name="ae">
          53 callgsubr
          hintmask 00000000
          hintmask 11011110
          307 277 -61 callgsubr
        </CharString>
        <CharString name="aeacute">
          53 callgsubr
          hintmask 10111110
          331 578 rmoveto
          -84 callgsubr
          hintmask 11011110
          -120 -416 -61 callgsubr
        </CharString>
        <CharString name="agrave">
          -46 callgsubr
          143 644 rmoveto
          -89 callgsubr
          168 -603 -66 callsubr
          -39 callsubr
          hintmask 10111000
          -17 callsubr
          hintmask 01111000
          -48 callgsubr
          hintmask 10111000
          -85 callgsubr
          hvcurveto
          hintmask 01111000
          -38 callgsubr
          vhcurveto
          endchar
        </CharString>
        <CharString name="amacron">
          -36 callgsubr
          77 83 -6 callgsubr
          hintmask 01111100
          83 669 -58 callsubr
          -118 -628 -66 callsubr
          -39 callsubr
          hintmask 10111100
          -17 callsubr
          hintmask 01111100
          -48 callgsubr
          hintmask 10111100
          -85 callgsubr
          hvcurveto
          hintmask 01111100
          -38 callgsubr
          vhcurveto
          endchar
        </CharString>
        <CharString name="ampersand">
          1 -17 81 -64 63 264 56 202 81 hstemhm
          33 127 -83 116 180 58 46 87 hintmask 10111011
          452 32 rmoveto
          3 -2 rlineto
          hintmask 01110111
          -23 23 26 -7 22 hhcurveto
          130 63 hlineto
          -87 18 -38 39 rlineto
          22 40 11 42 36 vvcurveto
          81 -17 64 0 vhcurveto
          -174 -56 hlineto
          94 -19 rlineto
          4 -13 6 -20 -31 vvcurveto
          -19 -3 -20 -6 -20 vhcurveto
          -219 227 rlineto
          -47 48 -9 19 35 vvcurveto
          40 9 31 68 35 25 -6 -4 11 vhcurveto
          21 -112 rlineto
          69 175 hlineto
          10 -23 -73 18 -56 hhcurveto
          -137 -65 -71 -96 -58 25 -43 45 -52 hvcurveto
          hintmask 10111011
          -45 -27 -69 -57 -93 vvcurveto
          -143 116 -43 136 69 56 19 30 42 vhcurveto
          -251 256 rmoveto
          196 -199 rlineto
          -16 -25 -31 -9 -37 hhcurveto
          -96 -48 40 79 52 21 33 20 20 hvcurveto
          endchar
        </CharString>
        <CharString name="aogonek">
          -90 -187 72 103 86 -58 -21 46 33 352 83 -6 callgsubr
          -131 93 hintmask 00000000
          hintmask 11001001
          311 41 rmoveto
          9 hlineto
          hintmask 10111001
          8 -25 11 -16 37 -5 rrcurveto
          -36 -24 -32 -37 -47 -65 callsubr
          33 28 29 21 18 hvcurveto
          hintmask 10111110
          34 6 28 11 0 vvcurveto
          51 36 callsubr
          292 vlineto
          103 -61 33 -112 -84 -131 -40 -90 -45 25 -14 44 28 25 10 0 vhcurveto
          14 91 rlineto
          0 11 5 35 63 11 -29 -47 vhcurveto
          -66 vlineto
          -107 -18 rlineto
          -39 callsubr
          hintmask 11001110
          -17 callsubr
          hintmask 11001001
          -38 callsubr
          hintmask 11001110
          -4 174 rmoveto
          -85 callgsubr
          -38 callgsubr
          hvcurveto
          endchar
        </CharString>
        <CharString name="approxequal">
          -80 108 321 hstem
          75 389 vstem
          114 388 rmoveto
          -39 -62 100 callgsubr
          29 24 9 28 17 hvcurveto
          39 63 -35 33 101 callgsubr
          -12 -28 -17 hvcurveto
          -190 vmoveto
          -39 -57 100 callgsubr
          30 22 10 27 18 hvcurveto
          39 58 -35 38 101 callgsubr
          -17 -28 -17 hvcurveto
          endchar
        </CharString>
        <CharString name="aring">
          -36 callgsubr
          52 48 86 50 36 callgsubr
          -31 74 64 74 -48 132 hintmask 0111101010000000
          143 649 2 callgsubr
          61 -568 rmoveto
          9 hlineto
          hintmask 0111110010000000
          -107 callgsubr
          -39 callsubr
          hintmask 1011110010000000
          -17 callsubr
          hintmask 0111101100000000
          -38 callsubr
          hintmask 1011110010000000
          -4 174 rmoveto
          -85 callgsubr
          -38 callgsubr
          hvcurveto
          endchar
        </CharString>
        <CharString name="aringacute">
          -36 callgsubr
          52 48 86 50 36 callgsubr
          -20 74 64 74 -59 132 hintmask 0111101010000000
          216 829 rmoveto
          -84 callgsubr
          -158 -295 2 callgsubr
          50 -568 rmoveto
          9 hlineto
          hintmask 0111110010000000
          -107 callgsubr
          -39 callsubr
          hintmask 1011110010000000
          -17 callsubr
          hintmask 0111101100000000
          -38 callsubr
          hintmask 1011110010000000
          -4 174 rmoveto
          -85 callgsubr
          -38 callgsubr
          hvcurveto
          endchar
        </CharString>
        <CharString name="asciicircum">
          -80 649 -20 hstem
          44 443 vstem
          235 649 rmoveto
          -191 -387 rlineto
          93 hlineto
          129 281 128 -281 rlineto
          93 hlineto
          -190 387 rlineto
          endchar
        </CharString>
        <CharString name="asciitilde">
          -180 215 136 hstem
          20 390 vstem
          59 311 rmoveto
          -39 -62 35 -33 75 38 92 -23 rlineto
          -7 26 27 -9 27 hhcurveto
          29 23 12 28 17 hvcurveto
          39 63 89 callgsubr
          -92 25 rlineto
          7 -25 -31 6 -20 hhcurveto
          16 callsubr
          endchar
        </CharString>
        <CharString name="asterisk">
          -226 510 -20 173 -20 hstemhm
          10 173 -173 363 hintmask 11010000
          157 499 rmoveto
          -58 -121 rlineto
          -21 27 18 -11 15 hhcurveto
          34 10 52 20 4 hvcurveto
          11 61 96 -92 rlineto
          37 24 14 17 18 vvcurveto
          34 -31 10 -25 13 vhcurveto
          -55 29 119 63 rlineto
          50 -16 -13 18 -23 hhcurveto
          -21 -13 -12 -17 -17 hvcurveto
          -54 -51 -20 133 rlineto
          -27 hlineto
          -46 -11 -20 -21 -17 10 -19 8 -18 hvcurveto
          27 -58 rlineto
          hintmask 11100000
          -132 21 rlineto
          -11 -26 -4 -17 -12 vvcurveto
          -33 28 -7 19 9 19 2 1 8 vhcurveto
          115 18 rmoveto
          -25 7 rlineto
          27 vlineto
          23 9 16 -22 rlineto
          endchar
        </CharString>
        <CharString name="at">
          152 -112 80 78 89 -75 88 221 81 -14 24 81 89 hstemhm
          22 117 68 107 328 113 hintmask 1101011110000000
          596 -45 rmoveto
          -23 48 rlineto
          -19 -43 -50 -16 -81 hhcurveto
          -167 -93 102 187 204 130 80 139 113 121 -52 -198 -111 -46 -45 -42 -32 -5 13 18 2 1 11 2 11 hvcurveto
          hintmask 1100111110000000
          47 270 rlineto
          -61 hlineto
          -8 -6 -9 -9 -10 -9 rrcurveto
          hintmask 1011011110000000
          0 -36 14 -46 -122 -68 -144 -106 -104 47 -36 56 47 18 10 38 55 vhcurveto
          hintmask 1101011110000000
          -34 16 39 -28 64 hhcurveto
          123 83 100 164 193 -126 127 -212 -241 -154 -174 -204 -216 120 -148 239 135 80 66 1 hvcurveto
          -154 394 rmoveto
          hintmask 1011011110000000
          -28 -175 rlineto
          0 -23 -26 -35 -36 -6 22 42 85 24 55 10 10 vhcurveto
          5 5 10 2 17 hhcurveto
          hintmask 1101011110000000
          39 23 -20 0 hvcurveto
          endchar
        </CharString>
        <CharString name="atilde">
          -36 callgsubr
          152 -20 25 -20 -6 callgsubr
          hintmask 01101010
          97 -82 callsubr
          hintmask 01110010
          -54 callgsubr
          hintmask 01101010
          16 callsubr
          214 -626 -66 callsubr
          hintmask 10101110
          -39 callsubr
          -17 callsubr
          hintmask 01101010
          -38 callsubr
          hintmask 10101110
          -4 174 rmoveto
          -85 callgsubr
          -38 callgsubr
          hvcurveto
          endchar
        </CharString>
        <CharString name="b">
          -67 -8 77 -48 -21 31 38 352 88 hstemhm
          66 132 173 142 hintmask 10011100
          66 602 rmoveto
          hintmask 01111100
          -602 66 vlineto
          39 31 rlineto
          11 hlineto
          hintmask 10011100
          -14 15 35 -25 62 hhcurveto
          109 110 92 204 161 -78 60 -97 -78 -54 -41 -11 -14 hvcurveto
          -3 5 9 9 rlineto
          214 vlineto
          -37 14 -176 -81 callgsubr
          213 -539 rmoveto
          328 vlineto
          5 13 26 9 36 hhcurveto
          68 30 -39 -128 -141 -36 -44 -75 -29 -20 5 5 -13 hvcurveto
          endchar
        </CharString>
        <CharString name="backslash">
          -142 -145 -21 hstem
          13 441 vstem
          13 658 rmoveto
          358 -824 83 37 -360 824 rlineto
          endchar
        </CharString>
        <CharString name="bar">
          86 callsubr
          -855 90 855 vlineto
          endchar
        </CharString>
        <CharString name="braceleft">
          -370 -151 854 hstemhm
          20 158 -129 115 hintmask 10100000
          75 228 rmoveto
          -26 -209 rlineto
          -1 -6 0 -5 -6 vvcurveto
          -77 69 -52 78 -24 vhcurveto
          28 55 rlineto
          -54 29 -6 27 48 vvcurveto
          hintmask 11000000
          15 206 rlineto
          33 -14 19 -16 12 vhcurveto
          16 12 14 19 33 vvcurveto
          hintmask 10100000
          -14 202 rlineto
          48 6 27 54 29 vhcurveto
          -28 55 rlineto
          -78 -24 -69 -53 -76 vvcurveto
          -6 0 -5 1 -6 vhcurveto
          hintmask 11000000
          25 -205 -18 -9 -22 -8 -15 -6 rlinecurve
          -53 vlineto
          hintmask 10100000
          15 -6 22 -9 18 -9 rrcurveto
          endchar
        </CharString>
        <CharString name="braceright">
          -370 648 -20 hstemhm
          62 158 -143 115 hintmask 10100000
          17 -96 rmoveto
          28 -55 rlineto
          77 24 70 52 77 vvcurveto
          6 0 5 -1 6 vhcurveto
          hintmask 11000000
          -26 209 18 9 22 9 15 6 rlinecurve
          53 vlineto
          hintmask 10100000
          -15 6 -22 8 -18 9 25 205 rcurveline
          1 6 0 5 6 vvcurveto
          76 -70 53 -77 24 vhcurveto
          -28 -55 rlineto
          54 -29 6 -27 -48 vvcurveto
          hintmask 11000000
          -14 -202 rlineto
          -33 14 -19 16 -12 vhcurveto
          -16 -12 -14 -19 -33 vvcurveto
          hintmask 10100000
          15 -206 rlineto
          -48 -6 -27 -54 -29 vhcurveto
          endchar
        </CharString>
        <CharString name="bracketleft">
          -354 -151 64 726 65 hstem
          62 104 vstem
          62 704 rmoveto
          -855 210 64 vlineto
          -106 21 rlineto
          684 vlineto
          106 21 rlineto
          65 vlineto
          endchar
        </CharString>
        <CharString name="bracketright">
          -354 -151 64 727 64 hstem
          90 104 vstem
          -16 -87 rmoveto
          -64 210 855 -210 -64 vlineto
          106 -21 rlineto
          -685 vlineto
          endchar
        </CharString>
        <CharString name="breve">
          -281 550 89 hstem
          -1 331 vstem
          74 719 -29 callgsubr
        </CharString>
        <CharString name="brokenbar">
          86 callsubr
          -365 90 365 vlineto
          -90 -490 rmoveto
          -365 90 365 vlineto
          endchar
        </CharString>
        <CharString name="bullet">
          -197 192 227 hstem
          90 227 vstem
          90 305 rmoveto
          -63 50 -50 63 63 51 50 63 63 -51 51 -63 -63 -50 -51 -63 vhcurveto
          endchar
        </CharString>
        <CharString name="c">
          67 callgsubr
          423 50 -79 callgsubr
        </CharString>
        <CharString name="cacute">
          -164 -12 88 350 83 hstem
          25 142 vstem
          149 -69 callgsubr
          183 -643 -79 callgsubr
        </CharString>
        <CharString name="cacute.loclPLK">
          67 callgsubr
          232 -24 callsubr
          131 -638 -79 callgsubr
        </CharString>
        <CharString name="caron">
          -281 538 181 hstem
          11 307 vstem
          54 719 -99 callsubr
          endchar
        </CharString>
        <CharString name="ccaron">
          -164 -12 88 350 83 hstem
          25 142 vstem
          140 719 -99 callsubr
          173 -594 -79 callgsubr
        </CharString>
        <CharString name="ccedilla">
          -164 -194 53 131 86 -66 -21 22 -21 436 83 hstemhm
          25 142 104 92 hintmask 10011110
          175 -28 callsubr
          82 42 31 59 hvcurveto
          hintmask 10101110
          46 -27 13 -41 10 vhcurveto
          -21 5 rlineto
          19 vlineto
          hintmask 11001110
          98 5 56 56 0 vvcurveto
          -18 42 rlineto
          0 -43 -16 -63 -116 -21 55 134 130 27 31 71 24 17 -5 0 vhcurveto
          18 -99 rlineto
          0 19 -7 16 68 12 29 34 81 -78 50 -99 -110 -127 -67 -205 -157 60 -79 135 -11 vhcurveto
          -24 -54 -57 callsubr
        </CharString>
        <CharString name="ccircumflex">
          67 callgsubr
          102 581 -105 callsubr
          220 -635 -79 callgsubr
        </CharString>
        <CharString name="cdotaccent">
          -156 -12 88 350 83 52 166 hstemhm
          20 142 13 163 hintmask 00000000
          hintmask 11111000
          252 -83 callsubr
          171 -511 rmoveto
          -18 42 rlineto
          0 -43 -16 -63 vhcurveto
          hintmask 11010000
          -116 -21 55 134 130 27 31 71 24 17 -5 0 hvcurveto
          18 -99 rlineto
          0 19 -7 16 68 12 29 34 81 -78 50 -99 -110 -127 -67 -205 -171 71 -78 162 vhcurveto
          hintmask 11111000
          108 62 62 0 hvcurveto
          endchar
        </CharString>
        <CharString name="cedilla">
          -402 -194 53 51 90 hstem
          116 92 vstem
          20 -28 callsubr
          -2 callsubr
          30 -49 vlineto
          -29 -64 -57 callsubr
        </CharString>
        <CharString name="cent">
          -164 -46 196 373 82 hstem
          91 callsubr
          vstem
          210 62 rmoveto
          6 -108 rlineto
          76 hlineto
          5 107 rlineto
          32 callsubr
          161 hlineto
          60 callgsubr
          125 callgsubr
        </CharString>
        <CharString name="cent.osf">
          -164 -117 196 -89 89 -68 -21 22 -21 461 82 -25 -20 hstemhm
          91 callsubr
          hintmask 0001011100000000
          210 -9 rmoveto
          hintmask 1000011100000000
          6 -108 rlineto
          76 hlineto
          hintmask 0010011100000000
          5 107 rlineto
          hintmask 0100101110000000
          32 callsubr
          hlineto
          hintmask 0001011110000000
          161 vlineto
          hintmask 0001101110000000
          60 callgsubr
          hintmask 0001011100000000
          125 callgsubr
        </CharString>
        <CharString name="circumflex">
          -281 538 182 hstem
          9 310 vstem
          9 581 -105 callsubr
          endchar
        </CharString>
        <CharString name="colon">
          -419 -8 152 168 103 callsubr
          312 -52 callsubr
          -320 vmoveto
          74 callsubr
        </CharString>
        <CharString name="comma">
          -419 -139 282 hstem
          55 117 vstem
          61 -139 rmoveto
          33 callsubr
        </CharString>
        <CharString name="copyright">
          58 -2 64 93 61 218 62 90 67 hstem
          8 73 81 102 146 45 135 73 vstem
          8 325 rmoveto
          -181 146 -146 182 181 146 146 181 182 -146 146 -181 -182 -146 -146 -182 vhcurveto
          326 -263 rmoveto
          -146 -107 117 145 145 107 117 146 145 111 -117 -145 -145 -111 -117 -145 hvcurveto
          78 225 rmoveto
          -12 -60 rlineto
          -6 -9 -16 -5 -20 hhcurveto
          -61 -30 19 88 83 21 28 69 19 16 -5 -4 10 hvcurveto
          11 -52 rlineto
          45 110 hlineto
          5 -22 -48 8 -52 hhcurveto
          -101 -70 -74 -100 -106 53 -61 107 70 42 14 8 23 hvcurveto
          110 vlineto
          endchar
        </CharString>
        <CharString name="currency">
          -80 114 114 205 109 -36 106 callgsubr
          46 112 206 112 hintmask 10011100
          80 211 rmoveto
          -79 -86 61 -60 86 80 rlineto
          -20 32 38 -11 42 hhcurveto
          43 40 12 22 34 hvcurveto
          90 -84 61 60 -85 90 rlineto
          19 32 14 40 42 vvcurveto
          hintmask 10101100
          41 -13 38 -19 32 vhcurveto
          84 89 -61 60 -89 -82 rlineto
          hintmask 11001100
          21 -33 -43 15 -42 hhcurveto
          hintmask 10011100
          -42 -39 -11 -20 -32 hvcurveto
          -84 78 -61 -60 78 -84 rlineto
          -22 -33 -12 -41 -43 vvcurveto
          -44 12 -40 22 -33 vhcurveto
          78 117 rmoveto
          hintmask 11001100
          56 47 49 55 56 48 -48 -56 -55 -48 -46 -56 vhcurveto
          hintmask 10011100
          -55 -47 46 54 hvcurveto
          endchar
        </CharString>
        <CharString name="d">
          -42 -12 88 -63 -21 434 83 hstemhm
          30 83 callgsubr
          hintmask 10111000
          359 41 rmoveto
          hintmask 01111000
          23 -67 callsubr
          hintmask 10111000
          6 callsubr
          -12 374 40 callsubr
        </CharString>
        <CharString name="dagger">
          -156 21 -21 399.5 104.5 hstem
          168 119 vstem
          168 405 rmoveto
          -405 119 405 vlineto
          152 -11 rlineto
          121 vlineto
          -159 -11 13 165 rlineto
          -132 hlineto
          13 -165 -159 11 rlineto
          -121 vlineto
          endchar
        </CharString>
        <CharString name="daggerdbl">
          -154 21 -21 158.5 104.5 -99 104.5 132 104.5 -99 99 hstemhm
          175 111.5 -109.5 102 hintmask 00000000
          hintmask 11001100
          20 274 rmoveto
          -121 vlineto
          155 11 -4 -58 -4 -56 -3 -50 rlinecurve
          128 hlineto
          hintmask 10101100
          -11 164 51 -4 60 -4 44 -3 rlinecurve
          121 vlineto
          hintmask 10101010
          -157 -11 rlineto
          143 vlineto
          hintmask 10110010
          157 -11 rlineto
          hintmask 10101100
          121 vlineto
          -44 -3 -60 -4 -51 -4 11 164 rcurveline
          -128 hlineto
          3 -50 4 -56 4 -58 -155 11 rcurveline
          -121 vlineto
          hintmask 11001010
          42 3 65 4 50 4 rrcurveto
          -143 vlineto
          hintmask 11001100
          -50 4 -65 4 -42 3 rrcurveto
          endchar
        </CharString>
        <CharString name="dcaron">
          -30 -12 88 -63 -21 434 83 32 189 hstemhm
          34 83 callgsubr
          45 112 hintmask 10111110
          526 111 callgsubr
          68 67 67 vvcurveto
          24 -18 31 -42 -18 -20 -6 -16 -14 vhcurveto
          12 -15 7 -25 0 -25 0 -28 -6 -44 -30 flex1
          -161 -500 rmoveto
          hintmask 01111110
          21 -67 callsubr
          hintmask 10111110
          6 callsubr
          -12 374 40 callsubr
        </CharString>
        <CharString name="dcroat">
          -64 -12 88 -63 -21 421 83 47 77 hstemhm
          28 83 callgsubr
          hintmask 10111100
          359 41 rmoveto
          hintmask 01111100
          21 -49 176 23 rlineto
          58 vlineto
          -81 16 rlineto
          454 37 77 -37 65 vlineto
          -37 14 -150 -14 rlineto
          -30 vlineto
          55 -22 rlineto
          -13 -178 -77 178 -63 vlineto
          9 -9 -4 -3 rlineto
          13 -19 -32 15 -48 hhcurveto
          -115 -106 -82 -193 hvcurveto
          hintmask 10111100
          6 callsubr
          -12 361 rmoveto
          -306 vlineto
          -10 -18 -25 -10 -33 hhcurveto
          -66 -31 36 126 134 33 41 64 30 27 -6 -5 19 hvcurveto
          endchar
        </CharString>
        <CharString name="degree">
          -372 456 76 75 77 hstem
          5 76 75 77 vstem
          5 569 rmoveto
          -63 50 -50 63 64 51 50 63 64 -51 51 -64 -63 -50 -51 -64 vhcurveto
          76 hmoveto
          22 16 16 21 22 16 -16 -22 -21 -16 -16 -22 -21 -16 16 21 vhcurveto
          endchar
        </CharString>
        <CharString name="dieresis">
          -236 561 152 hstem
          0 52 callgsubr
          vstem
          70 561 rmoveto
          -104 callsubr
          225 hmoveto
          -104 callsubr
          endchar
        </CharString>
        <CharString name="divide">
          -80 -3 166 47 94 45 166 hstem
          182 163 vstem
          259 349 -105 callgsubr
          -192 -45 93 callsubr
          -203 -307 -105 callgsubr
          endchar
        </CharString>
        <CharString name="dollar">
          -156 -107 175 -81 81 -56 -21 580 83 -83 186 -107 -20 24 -20 hstemhm
          29 70 -70 131 32 84 43 120 callsubr
          hintmask 0010001011100000
          445 189 rmoveto
          109 -58 38 -97 48 vhcurveto
          hintmask 0011000011010000
          -87 43 -43 14 59 vvcurveto
          44 23 27 61 38 26 -10 -9 18 vhcurveto
          28 callsubr
          -26 8 -58 12 -54 4 rrcurveto
          hintmask 0010100011100000
          -4 103 rlineto
          -79 hlineto
          hintmask 0100010011100000
          -6 -107 rlineto
          -101 -18 -59 -67 -101 vvcurveto
          -135 106 -35 78 -36 vhcurveto
          97 -45 9 -30 -30 vvcurveto
          -48 -24 -37 -72 vhcurveto
          hintmask 0100001101100000
          -52 -27 19 24 -24 hvcurveto
          -21 103 rlineto
          -70 -178 hlineto
          18 -13 62 -30 82 -6 rrcurveto
          hintmask 1000001011100000
          5 -94 rlineto
          76 hlineto
          hintmask 0010001011100000
          5 98 rlineto
          90 15 78 56 127 vvcurveto
          endchar
        </CharString>
        <CharString name="dollar.osf">
          -174 -117 178 -75 75 -48 -21 459 186 hstemhm
          26 118 -115 68 86.5 81 26.5 119 -94 69 hintmask 0000000000000000
          hintmask 0101011010000000
          29 169 rmoveto
          -151 vlineto
          19 -11 63 -18 70 -3 rrcurveto
          hintmask 1001101010000000
          5 -103 rlineto
          76 hlineto
          hintmask 0011101010000000
          5 109 rlineto
          hintmask 0011101100000000
          76 15 67 46 100 208 -266 -74 109 vvcurveto
          29 15 26 68 vhcurveto
          hintmask 0011101010000000
          40 30 -11 0 hvcurveto
          19 -76 rlineto
          69 149 hlineto
          -13 4 -51 12 -53 4 -4 104 rcurveline
          -79 hlineto
          -6 -107 rlineto
          -94 -16 -59 -60 -87 vvcurveto
          hintmask 0101101100000000
          -202 265 80 -113 vvcurveto
          -51 -18 -20 -80 vhcurveto
          hintmask 0101011010000000
          -48 -25 25 0 hvcurveto
          -23 83 rlineto
          endchar
        </CharString>
        <CharString name="dotaccent">
          -447 561 166 hstem
          0 163 vstem
          77 -83 callsubr
          endchar
        </CharString>
        <CharString name="dotbelowcomb">
          -14 callsubr
          hstem
          -163 163 vstem
          -86 -206 -105 callgsubr
          endchar
        </CharString>
        <CharString name="dotlessi">
          -20 callgsubr
          76 callgsubr
          hintmask 10110000
          19 55 -45 callsubr
          hintmask 01110000
          -70 14 rlineto
          423 -94 callsubr
          -340 vlineto
          endchar
        </CharString>
        <CharString name="e">
          -12 callsubr
          442 58 -107 callsubr
          endchar
        </CharString>
        <CharString name="eacute">
          -1 callsubr
          161 -69 callgsubr
          192 -635 -107 callsubr
          endchar
        </CharString>
        <CharString name="ebreve">
          -122 -36 callsubr
          41 89 hstem
          20 9 callgsubr
          163 719 -100 callsubr
          279 -661 -107 callsubr
          endchar
        </CharString>
        <CharString name="ecaron">
          -1 callsubr
          139 719 -99 callsubr
          195 -586 -107 callsubr
          endchar
        </CharString>
        <CharString name="ecircumflex">
          -1 callsubr
          97 581 -105 callsubr
          251 -627 -107 callsubr
          endchar
        </CharString>
        <CharString name="edieresis">
          -130 -36 callsubr
          52 152 hstemhm
          27 142 -104 52 callgsubr
          -116 138 hintmask 00000000
          hintmask 11110110
          135 561 rmoveto
          -104 callsubr
          225 hmoveto
          -104 callsubr
          89 -503 rmoveto
          -19 42 rlineto
          0 -46 -24 -83 vhcurveto
          hintmask 11101001
          31 callsubr
          hintmask 11110110
          109 72 70 0 hvcurveto
          hintmask 11101001
          43 callgsubr
        </CharString>
        <CharString name="edotaccent">
          -130 -36 callsubr
          52 166 hstemhm
          27 142 6 163 -15 138 hintmask 00000000
          hintmask 11110100
          252 -83 callsubr
          197 -503 rmoveto
          -19 42 rlineto
          0 -46 -24 -83 vhcurveto
          hintmask 11101010
          31 callsubr
          hintmask 11110100
          109 72 70 0 hvcurveto
          hintmask 11101010
          43 callgsubr
        </CharString>
        <CharString name="egrave">
          -1 callsubr
          138 644 rmoveto
          -89 callgsubr
          311 -586 -107 callsubr
          endchar
        </CharString>
        <CharString name="eight">
          -95 -14 80 518 87 hstemhm
          42 120 -120 139 170 110 -110 134 hintmask 11011000
          152 313 rmoveto
          -61 -38 -49 -72 -66 vvcurveto
          -95 70 -56 139 vhcurveto
          hintmask 11010100
          152 82 94 101 92 -45 45 -67 38 hvcurveto
          hintmask 11011000
          52 34 36 51 80 vvcurveto
          93 -76 57 -118 -127 -89 -81 -113 -84 46 -47 55 -33 vhcurveto
          154 76 rmoveto
          -103 45 -22 27 50 vvcurveto
          46 24 27 56 63 27 -31 -52 -44 -17 -43 -28 -25 vhcurveto
          -91 -107 rmoveto
          41 -18 rlineto
          70 -29 31 -30 -54 vvcurveto
          -54 -31 -31 -63 vhcurveto
          hintmask 11101000
          -78 -23 42 54 37 9 36 44 47 hvcurveto
          endchar
        </CharString>
        <CharString name="eight.osf">
          -95 -14 80 518 87 hstemhm
          65 117 -107 131 161 110 -103 126 hintmask 00000000
          hintmask 11010100
          173 315 rmoveto
          hintmask 11100100
          -61 -38 -47 -58 -76 vvcurveto
          -79 52 -78 155 101 127 46 158 86 -46 47 -67 38 vhcurveto
          hintmask 11011000
          52 34 38 46 70 vvcurveto
          100 -71 60 -117 -127 -87 -81 -113 vhcurveto
          hintmask 11010100
          -82 43 -47 55 -33 vhcurveto
          hintmask 11011000
          144 81 rmoveto
          -90 42 -21 22 56 vvcurveto
          40 22 28 58 58 23 -31 -52 -46 -22 -34 -28 -25 vhcurveto
          hintmask 11100100
          -70 -118 rmoveto
          31 -13 rlineto
          69 -29 27 -26 -48 vvcurveto
          -56 -23 -40 -72 -69 -28 42 47 53 17 33 48 37 vhcurveto
          endchar
        </CharString>
        <CharString name="ellipsis">
          -13 -8 94 callgsubr
          50 149 50 149 vstem
          92 -8 -52 callsubr
          199 hmoveto
          -69 callsubr
          199 hmoveto
          74 callsubr
        </CharString>
        <CharString name="emacron">
          -130 -36 callsubr
          77 83 hstem
          27 9 callgsubr
          83 669 -58 callsubr
          20 -611 -107 callsubr
          endchar
        </CharString>
        <CharString name="emdash">
          350 214 104 hstem
          10 940 vstem
          10 318 rmoveto
          -104 940 104 vlineto
          endchar
        </CharString>
        <CharString name="endash">
          -130 212 104 hstem
          10 460 vstem
          10 316 rmoveto
          -104 460 104 vlineto
          endchar
        </CharString>
        <CharString name="eng">
          -30 112 callsubr
          352 90 -5 -20 hstemhm
          100 70 callgsubr
          hintmask 00000000
          hintmask 10101100
          378 511 rmoveto
          58 callgsubr
          hvcurveto
          -4 hlineto
          hintmask 01011100
          -28 47 -49 callsubr
          hintmask 10011100
          -79 -14 rlineto
          -30 callsubr
          hintmask 01101100
          -70 14 rlineto
          344 vlineto
          3 16 27 5 34 hhcurveto
          69 10 -24 -53 hvcurveto
          -421 vlineto
          -102 -23 rlineto
          -51 vlineto
          0 48 -18 64 83 39 37 53 vhcurveto
          446 vlineto
          hintmask 10101100
          102 -54 42 -88 vhcurveto
          endchar
        </CharString>
        <CharString name="eogonek">
          -130 -187 72 103 -32 callsubr
          hstemhm
          27 142 51 93 10 138 hintmask 00000000
          hintmask 11111110
          268 -12 rmoveto
          11 hlineto
          -32 -24 -27 -34 -43 -65 callsubr
          43 49 38 16 12 hvcurveto
          43 20 28 26 0 vvcurveto
          -19 42 rlineto
          0 -46 -24 -83 -101 -30 52 96 -1 vhcurveto
          hintmask 01111010
          245 hlineto
          31 16 15 69 90 -40 111 -157 -141 -96 -99 -172 hvcurveto
          hintmask 11111110
          -18 callgsubr
          vhcurveto
          hintmask 01111010
          52 309 56 callsubr
        </CharString>
        <CharString name="equal">
          -80 137 94 74 94 hstem
          67 395 vstem
          67 399 93 callsubr
          -395 -168 93 callsubr
          endchar
        </CharString>
        <CharString name="estimated">
          118 -18 66 258 66 227 66 hstem
          28 182 318 178 vstem
          210 110 rmoveto
          196 496 vlineto
          213 -1 -129 146 -207 hhcurveto
          -195 -146 -153 -190 -188 151 -152 195 121 99 66 79 65 hvcurveto
          -90 hlineto
          -48 -53 -51 -31 -89 hhcurveto
          -73 -61 25 37 -32 hvcurveto
          318 262 rmoveto
          -318 173 hlineto
          34 36 53 20 72 hhcurveto
          68 62 -26 -26 27 hvcurveto
          endchar
        </CharString>
        <CharString name="eth">
          -85 -14 76 336 81 151 69 hstem
          34 142 195 143 vstem
          158 579 rmoveto
          34 -68 112 57 23 -26 14 -34 11 -41 rlinecurve
          0 -27 12 -61 -123 -107 -79 -170 -168 73 -76 173 138 96 75 259 111 -31 116 -76 73 vhcurveto
          49 25 -34 68 -86 -44 rlineto
          19 -39 -46 11 -55 hhcurveto
          -51 -33 -6 0 hvcurveto
          -63 vlineto
          48 38 -5 -10 31 hvcurveto
          51 -553 rmoveto
          -84 -20 63 100 94 20 79 76 51 40 -13 0 hvcurveto
          0 8 -71 -73 vvcurveto
          -124 -10 -55 -81 vhcurveto
          endchar
        </CharString>
        <CharString name="exclam">
          -390 -28 152 hstem
          30 149 vstem
          26 667 rmoveto
          34 -507 rlineto
          84 hlineto
          9 181 15 148 147 vvcurveto
          26 -3 23 -66 -52 -21 -18 0 vhcurveto
          75 -695 rmoveto
          74 callsubr
        </CharString>
        <CharString name="exclamdown">
          -390 388 152 hstem
          48 149 vstem
          48 459 78 callsubr
          119 -107 rmoveto
          -84 hlineto
          -22 -416 -2 -44 -8 vvcurveto
          -29 0 -28 69 52 21 18 0 vhcurveto
          endchar
        </CharString>
        <CharString name="f">
          -261 112 callsubr
          353 79 4 -20 122 98 76 callgsubr
          hintmask 10101100
          19 55 rmoveto
          -55 315 58 vlineto
          -104 15 rlineto
          349 117 vlineto
          13 39 rlineto
          40 -130 104 vlineto
          5 callsubr
          vhcurveto
          hintmask 10011100
          110 callsubr
          hvcurveto
          hintmask 01101100
          81 callgsubr
          endchar
        </CharString>
        <CharString name="f_f">
          69 0 55 367 79 4 -20 122 98 76 callgsubr
          198 132 hintmask 11011100
          644 705 rmoveto
          110 callsubr
          hvcurveto
          -17 -4 rlineto
          -181 104 hlineto
          5 callsubr
          vhcurveto
          hintmask 10111100
          110 callsubr
          hvcurveto
          hintmask 11011100
          81 callgsubr
          -79 -14 rlineto
          -55 295 58 vlineto
          -84 15 rlineto
          349 198 -353 vlineto
          -79 -14 rlineto
          -55 315 58 vlineto
          -104 15 rlineto
          349 117 vlineto
          13 39 rlineto
          40 -130 104 vlineto
          5 callsubr
          vhcurveto
          endchar
        </CharString>
        <CharString name="fi">
          -5 0 55 367 79 106 98 hstem
          98 132 164 132 vstem
          19 55 rmoveto
          -55 285 55 vlineto
          -74 18 rlineto
          349 83 vlineto
          81 -16 rlineto
          -337 108 callgsubr
          418 vlineto
          -37 14 rlineto
          -259 104 hlineto
          0 11 2 14 vhcurveto
          85 16 -31 46 hhcurveto
          35 26 31 33 41 -33 24 -85 -139 -85 -86 -114 -23 hvcurveto
          81 callgsubr
          endchar
        </CharString>
        <CharString name="five">
          -140 -17 87 -87 208 131 87 126 113 hstemhm
          44 87 188 141 hintmask 01111100
          207 -17 rmoveto
          145 106 75 162 147 -109 42 -159 hvcurveto
          -59 126 286 113 -373 -326 104 hlineto
          124 50 -37 -88 hvcurveto
          hintmask 10111100
          -87 -33 -40 -77 -64 -37 29 0 vhcurveto
          hintmask 01111100
          -12 92 rlineto
          -70 hlineto
          -9 -164 rlineto
          -15 24 62 -29 101 hhcurveto
          endchar
        </CharString>
        <CharString name="five.osf">
          -140 -166 62 295 89 126 113 hstemhm
          293 141 -88 71 hintmask 11110000
          32 -104 rmoveto
          -55 vlineto
          0 37 -7 49 162 154 69 178 139 -106 56 -174 4 vhcurveto
          9 126 rlineto
          hintmask 11101000
          254 166 -71 hlineto
          -16 -53 rlineto
          -252 hlineto
          -24 -328 rlineto
          hintmask 11110000
          170 69 -38 -89 -120 -80 -48 -181 hvcurveto
          endchar
        </CharString>
        <CharString name="fl">
          9 0 55 367 79 4 -20 125 95 76 callgsubr
          176 132 hintmask 11011100
          19 55 rmoveto
          -55 301 55 vlineto
          -90 14 rlineto
          353 117 vlineto
          13 39 rlineto
          40 -130 104 vlineto
          0 20 5 47 56 53 -22 0 vhcurveto
          -519 108 callgsubr
          605 vlineto
          0 -62 31 -116 vhcurveto
          hintmask 10111100
          -189 -60 -78 -122 -13 hvcurveto
          hintmask 11011100
          81 callgsubr
          endchar
        </CharString>
        <CharString name="florin">
          -220 -119 86 48 -21 398 72 116 86 hstemhm
          106.5 122 hintmask 01111000
          111 392 rmoveto
          hintmask 11111000
          -9 -371 rlineto
          -37 -3 -15 -17 -36 hhcurveto
          hintmask 01111000
          -29 -31 13 14 -27 hvcurveto
          0 -42 -13 -35 vvcurveto
          hintmask 11111000
          -43 27 -22 86 87 98 72 129 10 vhcurveto
          3 310 rlineto
          118 72 -112 hlineto
          5 62 rlineto
          37 3 18 17 36 hhcurveto
          29 44 -13 -14 27 hvcurveto
          0 42 13 35 vvcurveto
          43 -27 22 -86 -87 -97 -74 -128 -22 vhcurveto
          -82 -17 -6 -55 rlineto
          endchar
        </CharString>
        <CharString name="four">
          -90 21 -21 165 95 431 -20 hstem
          285 133 vstem
          320 691 rmoveto
          -324 -450 37 -76 rlineto
          252 -89 hlineto
          -84 -18 rlineto
          -58 300 58 vlineto
          -85 18 rlineto
          89 79 95 -79 401 vlineto
          -131 -174 rmoveto
          -227 -161 10 vlineto
          155 217 4 14 5 -1 rlineto
          endchar
        </CharString>
        <CharString name="four.osf">
          -90 8 95 hstem
          291 133 vstem
          3 84 rmoveto
          37 -76 rlineto
          251 -172 133 172 79 95 -79 410 hlineto
          -98 21 rlineto
          -35 -431 rmoveto
          -166 10 hlineto
          160 217 4 14 5 -1 -3 -13 rlineto
          endchar
        </CharString>
        <CharString name="fraction">
          -153 -32 727 hstem
          -56 543 vstem
          413 695 rmoveto
          46 callgsubr
          endchar
        </CharString>
        <CharString name="g">
          -25 callsubr
          hintmask 0000000000000000
          hintmask 1110001010000000
          319 114 -101 callsubr
        </CharString>
        <CharString name="g_tilde.loclGUA">
          -21 callsubr
          141 106 callgsubr
          9 119 -107 139 -76 118 86 139 -76 123 hintmask 1110010101000000
          84 -82 callsubr
          hintmask 1110100101000000
          -54 callgsubr
          hintmask 1110010101000000
          16 callsubr
          hintmask 1110010010100000
          235 -553 rmoveto
          -117 19 rlineto
          40 14 vlineto
          hintmask 1101010101000000
          -76 callsubr
          hintmask 1110010101000000
          -46 callsubr
          hintmask 1110010011000000
          -27 -15 -32 -30 -35 vvcurveto
          -16 4 -15 9 -12 vhcurveto
          hintmask 1110011000100000
          -45 callgsubr
          hintmask 1110010010100000
          82 -52 23 -103 17 vhcurveto
          hintmask 1110010101000000
          -64 callgsubr
          hintmask 1110011000100000
          -63 callsubr
          hintmask 1110010101000000
          7 -2 8 -1 8 -1 rrcurveto
          endchar
        </CharString>
        <CharString name="gbreve">
          -21 callsubr
          30 89 hstemhm
          9 119 -107 139 -76 118 86 139 -76 123 hintmask 1110101010000000
          139 719 -100 callsubr
          hintmask 1110100101000000
          180 -605 rmoveto
          -117 19 rlineto
          40 14 vlineto
          hintmask 1101101010000000
          -76 callsubr
          hintmask 1110101010000000
          -46 callsubr
          hintmask 1110100110000000
          -27 -15 -32 -30 -35 vvcurveto
          -16 4 -15 9 -12 vhcurveto
          hintmask 1110110001000000
          -45 callgsubr
          hintmask 1110100101000000
          82 -52 23 -103 17 vhcurveto
          hintmask 1110101010000000
          -64 callgsubr
          hintmask 1110110001000000
          -63 callsubr
          hintmask 1110101010000000
          7 -2 8 -1 8 -1 rrcurveto
          endchar
        </CharString>
        <CharString name="gcaron">
          -25 callsubr
          hintmask 1110010100000000
          129 719 -99 callsubr
          hintmask 1110001010000000
          75 -530 -101 callsubr
        </CharString>
        <CharString name="gcircumflex">
          -25 callsubr
          hintmask 1110010100000000
          85 581 -105 callsubr
          hintmask 1110001010000000
          133 -571 -101 callsubr
        </CharString>
        <CharString name="gcommaaccent">
          -21 callsubr
          20 188 hstemhm
          9 119 -107 139 -76 118 -24 101 9 139 -76 123 hintmask 0000000000000000
          hintmask 1110101010100000
          208 728 rmoveto
          -44 hlineto
          0 14 -50 -44 vvcurveto
          -45 -20 -19 0 vhcurveto
          -16 14 16 -14 26 hhcurveto
          45 20 30 29 67 -71 62 0 hvcurveto
          111 -614 rmoveto
          hintmask 1101000101000000
          -117 19 rlineto
          40 14 vlineto
          -76 callsubr
          hintmask 1110001001000000
          -46 callsubr
          hintmask 1110000101000000
          -27 -15 -32 -30 -35 vvcurveto
          -16 4 -15 9 -12 vhcurveto
          hintmask 1110010000100000
          -45 callgsubr
          hintmask 1110101010100000
          82 -52 23 -103 17 vhcurveto
          hintmask 1110001001000000
          -64 callgsubr
          hintmask 1110010000100000
          -63 callsubr
          hintmask 1110001001000000
          7 -2 8 -1 8 -1 rrcurveto
          endchar
        </CharString>
        <CharString name="gdotaccent">
          -21 callsubr
          41 166 hstemhm
          9 119 -107 139 -76 118 -44 163 -33 139 -76 123 hintmask 0000000000000000
          hintmask 1110100010000000
          235 -83 callsubr
          hintmask 1110000100100000
          84 -447 rmoveto
          -117 19 rlineto
          40 14 vlineto
          hintmask 1101001001000000
          -76 callsubr
          hintmask 1110001001000000
          -46 callsubr
          hintmask 1110000101000000
          -27 -15 -32 -30 -35 vvcurveto
          -16 4 -15 9 -12 vhcurveto
          hintmask 1110010000100000
          -45 callgsubr
          hintmask 1110000100100000
          82 -52 23 -103 17 vhcurveto
          hintmask 1110001001000000
          -64 callgsubr
          hintmask 1110010000100000
          -63 callsubr
          hintmask 1110001001000000
          7 -2 8 -1 8 -1 rrcurveto
          endchar
        </CharString>
        <CharString name="germandbls">
          11 -14 73 -59 19 -19 55 -55 164 259 64 -64 82 0 -20 137 83 76 callgsubr
          52 126 -8 130 -38 116 hintmask 1000001111010000
          474 303 rmoveto
          -44 18 -22 10 34 vvcurveto
          36 25 19 27 21 vhcurveto
          hintmask 1000001110100000
          33 26 37 29 65 vvcurveto
          98 -83 46 -113 -139 -95 -70 -130 -2 vhcurveto
          hintmask 1000100111010000
          -75 -18 rlineto
          hintmask 0010010111010000
          -64 75 -354 vlineto
          -79 -14 rlineto
          hintmask 0100001110100000
          -55 211 507 vlineto
          83 29 32 61 46 34 -18 -50 -44 -25 -19 -28 -23 vhcurveto
          hintmask 1000001111010000
          -31 -26 -34 -35 -63 vvcurveto
          -81 56 -32 65 -27 vhcurveto
          57 -23 32 -9 -49 vvcurveto
          -44 -26 -20 -39 -36 -30 17 8 -10 vhcurveto
          hintmask 0001001111010000
          -24 80 rlineto
          -63 hlineto
          hintmask 0100001111010000
          -7 -145 rlineto
          hintmask 1000001111010000
          -11 19 74 -22 69 hhcurveto
          92 97 39 120 99 -66 30 -68 29 hvcurveto
          endchar
        </CharString>
        <CharString name="grave">
          -398 535 196 hstem
          0 212 vstem
          644 vmoveto
          -89 callgsubr
          endchar
        </CharString>
        <CharString name="gravecomb">
          108 callsubr
          644 rmoveto
          -89 callgsubr
          endchar
        </CharString>
        <CharString name="gravecomb.case">
          671 173 hstem
          -251 251 vstem
          -245 739 -98 callsubr
          endchar
        </CharString>
        <CharString name="greater">
          116 callsubr
          33 88 64 callgsubr
          endchar
        </CharString>
        <CharString name="greaterequal">
          -80 -51 84 hstem
          26 480 vstem
          27 139 64 callgsubr
          -327 -269 rmoveto
          -84 473 84 vlineto
          endchar
        </CharString>
        <CharString name="guillemotleft">
          -194 59 368 hstem
          12 386 vstem
          64 168 rmoveto
          37 callgsubr
          180 hmoveto
          37 callgsubr
          endchar
        </CharString>
        <CharString name="guillemotright">
          -194 59 368 hstem
          18 386 vstem
          94 241 39 callsubr
          256 -151 39 callsubr
          endchar
        </CharString>
        <CharString name="guilsinglleft">
          -374 65 356 hstem
          12 206 vstem
          64 174 rmoveto
          98 -109 56 35 -76 145 76 141 -56 35 -99 -109 rlineto
          -14 -16 -37 -39 -13 vvcurveto
          -17 37 -34 15 -19 vhcurveto
          endchar
        </CharString>
        <CharString name="guilsinglright">
          -374 65 356 hstem
          18 206 vstem
          94 245 rmoveto
          -76 -145 56 -35 98 109 rlineto
          15 19 37 34 17 vvcurveto
          13 -37 39 -14 16 vhcurveto
          -99 109 -56 -35 rlineto
          endchar
        </CharString>
        <CharString name="h">
          -10 0 55 368 86 hstem
          97 70 callgsubr
          vstem
          18 55 -56 callgsubr
          endchar
        </CharString>
        <CharString name="hbar">
          -10 0 55 355 86 42 77 hstem
          97 70 callgsubr
          vstem
          517 69 rmoveto
          285 vlineto
          102 -54 40 -88 -66 -62 -35 -17 -25 vhcurveto
          -1 4 8 8 rlineto
          82 135 77 -135 70 vlineto
          -37 14 -150 -14 rlineto
          -30 vlineto
          55 -23 rlineto
          -17 -80 -77 80 -469 vlineto
          -79 -14 rlineto
          -30 callsubr
          -70 14 rlineto
          331 vlineto
          5 20 33 5 24 hhcurveto
          69 10 -26 -53 hvcurveto
          -262 vlineto
          -70 -14 rlineto
          -55 276 55 vlineto
          endchar
        </CharString>
        <CharString name="hcircumflex">
          -10 0 55 368 86 hstem
          16 24 57 70 callgsubr
          vstem
          8 735 -105 callsubr
          -91 -784 -56 callgsubr
          endchar
        </CharString>
        <CharString name="hookabovecomb">
          670 67 hstemhm
          -222 209 -98 98 hintmask 11000000
          -165 536 rmoveto
          hintmask 10100000
          -102 callgsubr
          hintmask 11000000
          12 callgsubr
          endchar
        </CharString>
        <CharString name="hookabovecomb.case">
          788 67 hstemhm
          -221 209 -98 98 hintmask 11000000
          -164 671 rmoveto
          hintmask 10100000
          -103 callsubr
          hintmask 11000000
          12 callsubr
          endchar
        </CharString>
        <CharString name="hungarumlaut">
          -259 530 211 hstem
          -3 356 vstem
          62 -59 callgsubr
          endchar
        </CharString>
        <CharString name="hyphen">
          64 callsubr
        </CharString>
        <CharString name="i">
          -299 0 100 callsubr
          -135 132 hintmask 00000000
          hintmask 10111000
          147 -83 callsubr
          -128 105 callsubr
          hintmask 10110100
          281 55 hlineto
          hintmask 01110100
          61 callsubr
        </CharString>
        <CharString name="i.loclTRK">
          -299 0 53 callsubr
          82 163 -147 132 hintmask 00000000
          hintmask 10111000
          159 -83 callsubr
          -140 105 callsubr
          hintmask 10110100
          281 55 hlineto
          hintmask 01110100
          -70 14 rlineto
          423 -94 callsubr
          -340 vlineto
          endchar
        </CharString>
        <CharString name="iacute">
          -20 callgsubr
          76 callgsubr
          hintmask 10110000
          37 -69 callgsubr
          -114 -638 -45 callsubr
          hintmask 01110000
          -70 14 rlineto
          423 -94 callsubr
          -340 vlineto
          endchar
        </CharString>
        <CharString name="iacute_j.loclNLD">
          -7 112 callsubr
          437 -20 76 callgsubr
          178 132 hintmask 10111000
          118 578 rmoveto
          -84 callgsubr
          214 -115 rmoveto
          -84 callgsubr
          -505 -638 -45 callsubr
          hintmask 01111000
          -70 14 rlineto
          423 -94 callsubr
          -340 vlineto
          208 -169 -71 callgsubr
        </CharString>
        <CharString name="ibreve">
          -20 callgsubr
          64 89 76 callgsubr
          hintmask 10111000
          73 719 -100 callsubr
          -54 -664 -45 callsubr
          hintmask 01111000
          -70 14 rlineto
          423 -94 callsubr
          -340 vlineto
          endchar
        </CharString>
        <CharString name="icircumflex">
          -20 callgsubr
          76 callgsubr
          hintmask 10110000
          -9 581 -105 callsubr
          -73 -630 -45 callsubr
          hintmask 01110000
          -70 14 rlineto
          423 -94 callsubr
          -340 vlineto
          endchar
        </CharString>
        <CharString name="idieresis">
          -296 112 callsubr
          437 -20 75 152 hstemhm
          -53 149 5 132 -61 149 hintmask 00000000
          hintmask 10111010
          17 561 rmoveto
          -104 callsubr
          225 hmoveto
          -104 callsubr
          -220 105 callsubr
          hintmask 10110100
          281 55 hlineto
          hintmask 01110100
          -70 14 rlineto
          423 -94 callsubr
          -340 vlineto
          endchar
        </CharString>
        <CharString name="igrave">
          -20 callgsubr
          76 callgsubr
          hintmask 10110000
          26 644 rmoveto
          -89 callgsubr
          -7 -589 -45 callsubr
          hintmask 01110000
          -70 14 rlineto
          423 -94 callsubr
          -340 vlineto
          endchar
        </CharString>
        <CharString name="ij">
          -7 0 100 callsubr
          -135 132 150 83 callsubr
          hintmask 00000000
          hintmask 10111010
          147 -83 callsubr
          310 hmoveto
          52 34 41 47 49 -34 29 -44 -47 -38 -40 -46 -47 33 -33 44 hvcurveto
          -438 105 callsubr
          hintmask 10110101
          281 55 hlineto
          hintmask 01110101
          81 callsubr
          -49 callsubr
          208 -169 -71 callgsubr
        </CharString>
        <CharString name="imacron">
          -20 callgsubr
          100 83 76 callgsubr
          hintmask 10111000
          -22 669 rmoveto
          -13 -83 rlineto
          321 hlineto
          13 83 rlineto
          -280 -614 -45 callsubr
          hintmask 01111000
          -70 14 rlineto
          423 -94 callsubr
          -340 vlineto
          endchar
        </CharString>
        <CharString name="infinity">
          190 112 99 201 97 hstem
          25 102 546 102 vstem
          400 222 rmoveto
          -83 65 51 -27 71 hhcurveto
          105 83 77 121 121 -83 78 -105 -71 -49 -26 -84 -67 hvcurveto
          84 -67 -49 26 -71 hhcurveto
          -105 -83 -78 -121 -121 83 -77 105 70 52 27 83 65 hvcurveto
          -62 87 rmoveto
          -50 -35 -41 -48 -49 hhcurveto
          -47 -39 36 63 63 32 39 54 55 37 -52 -51 33 hvcurveto
          124 hmoveto
          51 33 37 52 55 hhcurveto
          54 32 -39 -63 -63 -39 -36 -47 -46 -46 52 46 -33 hvcurveto
          endchar
        </CharString>
        <CharString name="integral">
          -207 -164 98 680 98 hstem
          138 127 vstem
          138 512 rmoveto
          -557 vlineto
          -7 -3 -14 -22 -26 -12 6 19 -35 vhcurveto
          0 -40 -15 -46 vvcurveto
          -51 41 -11 48 101 75 85 115 vhcurveto
          557 vlineto
          7 3 14 22 26 12 -6 -19 35 vhcurveto
          0 40 15 46 vvcurveto
          51 -41 11 -48 -101 -75 -85 -115 vhcurveto
          endchar
        </CharString>
        <CharString name="iogonek">
          -299 -187 72 115 100 callsubr
          -135 132 -113 93 hintmask 00000000
          hintmask 11011100
          147 -83 callsubr
          hintmask 11011001
          -128 -506 rmoveto
          -55 174 vlineto
          -40 -24 -36 -38 -51 -65 callsubr
          33 29 31 21 17 hvcurveto
          hintmask 11011010
          40 55 hlineto
          hintmask 10111010
          61 callsubr
        </CharString>
        <CharString name="itilde">
          -20 callgsubr
          175 -20 25 -20 76 callgsubr
          hintmask 10101100
          8 -82 callsubr
          hintmask 10110100
          -54 callgsubr
          hintmask 10101100
          16 callsubr
          11 -612 -45 callsubr
          hintmask 01101100
          -70 14 rlineto
          423 -94 callsubr
          -340 vlineto
          endchar
        </CharString>
        <CharString name="j">
          -318 506 95 callsubr
          69 83 callsubr
          hintmask 00000000
          hintmask 11100000
          146 -83 callsubr
          -151 -661 rmoveto
          -51 vlineto
          0 48 -18 64 vhcurveto
          hintmask 11010000
          83 39 37 53 hvcurveto
          -52 callgsubr
        </CharString>
        <CharString name="jcircumflex">
          123 callgsubr
          8 581 -105 callsubr
          -114 -785 -71 callgsubr
        </CharString>
        <CharString name="k">
          -43 callsubr
        </CharString>
        <CharString name="k.001">
          -43 callsubr
        </CharString>
        <CharString name="kcommaaccent">
          -68 0 55 182 73 134 55 hstemhm
          95 132 33 98 -58 235 -176 210 hintmask 11110010
          16 -41 callgsubr
          hintmask 11110100
          107 133 72 14 rlineto
          55 -235 -55 vlineto
          55 -13 rlineto
          -9 vlineto
          -90 -112 rlineto
          -38 353 hlineto
          -27 36 -185 -23 rlineto
          -53 vlineto
          80 -16 rlineto
          -538 vlineto
          hintmask 11111000
          151 -281 -96 callsubr
        </CharString>
        <CharString name="kgreenlandic">
          -61 0 55 182 73 121 68 -53 53 7 -20 hstemhm
          100 132 73 235 -176 210 hintmask 11010101
          21 -41 callgsubr
          hintmask 11010110
          107 133 72 16 rlineto
          53 -235 -57 vlineto
          hintmask 11100110
          55 -11 rlineto
          -9 vlineto
          -90 -112 rlineto
          -38 hlineto
          hintmask 11001101
          182 -94 callsubr
          -340 vlineto
          endchar
        </CharString>
        <CharString name="l">
          7 callsubr
          hstemhm
          92 132 hintmask 10100000
          13 55 -45 callsubr
          hintmask 01100000
          -70 14 rlineto
          616 -94 callsubr
          -533 vlineto
          endchar
        </CharString>
        <CharString name="lacute">
          7 callsubr
          76 callgsubr
          hintmask 10100000
          -3 726 rmoveto
          25 -46 220 68 rlineto
          0 6 14 21 vvcurveto
          55 -26 11 -18 -15 -33 -20 -11 -17 vhcurveto
          -120 -763 -45 callsubr
          hintmask 01100000
          -70 14 rlineto
          616 -94 callsubr
          -533 vlineto
          endchar
        </CharString>
        <CharString name="lcaron">
          -285 112 callsubr
          472 189 hstemhm
          96 132 43 111 hintmask 10111000
          271 -34 callgsubr
          -254 -486 -45 callsubr
          hintmask 01111000
          -70 14 rlineto
          616 -94 callsubr
          -533 vlineto
          endchar
        </CharString>
        <CharString name="lcommaaccent">
          7 callsubr
          hstemhm
          96 132 -105 98 hintmask 10100000
          17 55 -45 callsubr
          hintmask 01100000
          -70 14 rlineto
          616 -94 callsubr
          -533 vlineto
          hintmask 10010000
          13 -281 -96 callsubr
        </CharString>
        <CharString name="ldot">
          7 callsubr
          227 152 hstemhm
          92 132 14 149 hintmask 10110000
          13 55 -45 callsubr
          hintmask 01110000
          -70 14 rlineto
          616 -94 callsubr
          -533 vlineto
          hintmask 10111000
          217 227 rmoveto
          74 callsubr
        </CharString>
        <CharString name="less">
          116 callsubr
          32 278 72 callgsubr
          endchar
        </CharString>
        <CharString name="lessequal">
          -80 -51 84 hstem
          468 38 vstem
          32 329 72 callgsubr
          -434 -520 rmoveto
          -84 473 84 vlineto
          endchar
        </CharString>
        <CharString name="logicalnot">
          -80 274 90 hstem
          384 83 vstem
          35 364 rmoveto
          -90 349 -162 83 252 vlineto
          endchar
        </CharString>
        <CharString name="longs">
          -261 112 callsubr
          353 65 -65 83 0 -20 122 98 76 callgsubr
          hintmask 10001110
          19 55 rmoveto
          -55 315 58 vlineto
          -104 15 rlineto
          532 vlineto
          5 callsubr
          110 callsubr
          vhcurveto
          hintmask 10100110
          -75 -18 rlineto
          hintmask 01010110
          -65 75 -353 vlineto
          endchar
        </CharString>
        <CharString name="lozenge">
          -80 0 107 -86 -21 542 107 0 -20 hstemhm
          41 449 hintmask 01011000
          41 326 rmoveto
          175 -326 rlineto
          99 hlineto
          175 326 -174 323 rlineto
          -101 hlineto
          159 -323 rmoveto
          hintmask 10101000
          -109 -219 -108 219 108 216 rlineto
          endchar
        </CharString>
        <CharString name="lslash">
          -293 112 callsubr
          hstemhm
          101 132 hintmask 10100000
          22 55 -45 callsubr
          hintmask 01100000
          -70 14 rlineto
          277 vlineto
          70 25 rlineto
          63 vlineto
          -70 -26 rlineto
          277 -94 callsubr
          -243 vlineto
          -83 -31 rlineto
          -59 vlineto
          83 29 rlineto
          -229 vlineto
          endchar
        </CharString>
        <CharString name="m">
          289 0 55 368 86 -3 -20 76 callgsubr
          161 133 161 133 hintmask 11011100
          19 124 callsubr
          342 vlineto
          4 16 34 8 32 55 callsubr
          17 -2 14 -3 13 vhcurveto
          4 14 38 8 35 55 callsubr
          102 -55 40 -88 -90 -73 -48 -7 -9 vhcurveto
          38 -24 -42 17 -56 hhcurveto
          -68 -61 -36 -14 -22 hvcurveto
          hintmask 10111100
          -37 47 -176 -68 callgsubr
          -340 vlineto
          endchar
        </CharString>
        <CharString name="macron">
          -245 586 83 hstem
          3 359 vstem
          16 669 -58 callsubr
          endchar
        </CharString>
        <CharString name="minus">
          -80 218 94 hstem
          67 395 vstem
          67 312 93 callsubr
          endchar
        </CharString>
        <CharString name="multiply">
          -80 82 381 hstem
          75 381 vstem
          75 151 rmoveto
          69 -69 121 122 122 -122 69 69 -122 121 122 122 -69 69 -122 -122 -121 122 -69 -69 122 -122 rlineto
          endchar
        </CharString>
        <CharString name="n">
          4 callsubr
          21 124 callsubr
          hintmask 11011000
          -86 callgsubr
          hintmask 10111000
          -28 47 99 callgsubr
        </CharString>
        <CharString name="nacute">
          4 callsubr
          212 -69 callgsubr
          -287 -638 -4 callgsubr
          hintmask 11011000
          -86 callgsubr
          hintmask 10111000
          -28 47 99 callgsubr
        </CharString>
        <CharString name="nacute.loclPLK">
          4 callsubr
          277 -24 callsubr
          -316 -633 -4 callgsubr
          hintmask 11011000
          -86 callgsubr
          hintmask 10111000
          -28 47 99 callgsubr
        </CharString>
        <CharString name="napostrophe">
          -10 0 55 366 90 -5 -20 55 189 hstemhm
          10 111 -21 70 callgsubr
          hintmask 00000000
          hintmask 10111010
          10 -34 callgsubr
          11 -486 rmoveto
          -55 vlineto
          hintmask 11000110
          281 55 hlineto
          -70 14 rlineto
          -86 callgsubr
          hintmask 10100110
          -28 47 99 callgsubr
        </CharString>
        <CharString name="ncaron">
          4 callsubr
          193 719 -99 callsubr
          -287 -589 -4 callgsubr
          hintmask 11011000
          -86 callgsubr
          hintmask 10111000
          -28 47 99 callgsubr
        </CharString>
        <CharString name="ncommaaccent">
          -7 0 55 366 90 -5 -20 hstemhm
          100 132 38 98 20 132 hintmask 10110100
          21 124 callsubr
          hintmask 11010100
          344 vlineto
          3 16 27 5 34 hhcurveto
          69 10 -24 -53 hvcurveto
          -275 vlineto
          hintmask 10111100
          -70 -14 rlineto
          -55 vlineto
          hintmask 11010100
          276 55 hlineto
          -74 14 rlineto
          91 callgsubr
          hintmask 10111100
          -28 47 -49 callsubr
          156 -281 -96 callsubr
        </CharString>
        <CharString name="nine">
          -90 -14 63 182 103 242 90 hstem
          24 142 177 148 vstem
          91 49 rmoveto
          -15 -55 hlineto
          -5 32 30 -3 29 hhcurveto
          202 122 106 277 214 -91 83 -156 -120 -100 -86 -139 -131 73 -79 123 55 44 17 17 24 hvcurveto
          -149 -6 -57 -67 -189 hhcurveto
          173 285 rmoveto
          -57 -41 28 93 90 25 31 58 80 14 -62 -138 hvcurveto
          -11 0 -11 -11 vvcurveto
          0 -33 -9 -46 vhcurveto
          endchar
        </CharString>
        <CharString name="nine.osf">
          -65 -172 63 200 103 251 90 hstem
          34 142 175 148 vstem
          86 -109 rmoveto
          -55 vlineto
          -5 32 30 -3 29 hhcurveto
          202 120 133 277 214 -83 83 -156 -120 -106 -92 -139 -131 58 -82 134 73 48 34 0 hvcurveto
          -141 -11 -46 -93 -189 hhcurveto
          169 303 rmoveto
          -57 -37 37 78 100 25 36 64 67 19 -61 -74 -55 -4 -52 0 hvcurveto
          0 -31 -9 -46 vhcurveto
          endchar
        </CharString>
        <CharString name="notequal">
          -80 137 94 74 94 hstem
          66 398 vstem
          134 137 rmoveto
          -67 -107 74 -49 99 156 rlineto
          221 94 -161 hlineto
          47 74 rlineto
          114 94 -54 hlineto
          57 89 -77 49 -87 -138 rlineto
          -234 -94 174 hlineto
          -46 -74 rlineto
          -128 -94 hlineto
          endchar
        </CharString>
        <CharString name="ntilde">
          -7 0 55 366 90 -5 -20 175 106 callgsubr
          100 70 callgsubr
          hintmask 10101110
          150 -82 callsubr
          hintmask 10110110
          -54 callgsubr
          hintmask 10101110
          16 callsubr
          -129 -612 -4 callgsubr
          hintmask 11001110
          -86 callgsubr
          hintmask 10101110
          -28 47 99 callgsubr
        </CharString>
        <CharString name="numbersign">
          -80 115 91 89 92 hstem
          -1 512 vstem
          92 115 rmoveto
          -28 -145 rlineto
          94 hlineto
          28 145 rlineto
          93 hlineto
          -28 -145 rlineto
          95 hlineto
          28 145 rlineto
          116 91 -99 hlineto
          17 89 rlineto
          103 92 -85 hlineto
          25 131 rlineto
          -94 hlineto
          -26 -131 rlineto
          -93 hlineto
          26 131 rlineto
          -95 hlineto
          -25 -131 rlineto
          -124 -92 106 hlineto
          -17 -89 rlineto
          -110 -91 hlineto
          297 91 rmoveto
          -93 hlineto
          18 89 rlineto
          93 hlineto
          endchar
        </CharString>
        <CharString name="o">
          -22 callgsubr
          257 -14 -106 callsubr
          endchar
        </CharString>
        <CharString name="oacute">
          -70 9 callsubr
          hstem
          30 -27 callsubr
          vstem
          180 -69 callgsubr
          -14 -707 -106 callsubr
          endchar
        </CharString>
        <CharString name="oacute.loclPLK">
          -22 callgsubr
          240 -24 callsubr
          -43 -702 -106 callsubr
          endchar
        </CharString>
        <CharString name="obreve">
          -80 9 callsubr
          39 89 1 callgsubr
          174 719 -100 callsubr
          83 -733 -106 callsubr
          endchar
        </CharString>
        <CharString name="ocircumflex">
          -70 9 callsubr
          hstem
          30 -27 callsubr
          vstem
          128 581 -105 callsubr
          33 -699 -106 callsubr
          endchar
        </CharString>
        <CharString name="odieresis">
          -70 9 callsubr
          50 152 hstemhm
          30 142 -80 52 callgsubr
          -98 142 hintmask 00000000
          hintmask 11101100
          162 561 rmoveto
          -104 callsubr
          225 hmoveto
          -104 callsubr
          hintmask 11010010
          -125 -575 -106 callsubr
          endchar
        </CharString>
        <CharString name="oe">
          225 -14 76 -74 -32 callsubr
          -83 85 hstemhm
          30 142 196 156 154 138 hintmask 00000000
          hintmask 01110111
          804 58 rmoveto
          -19 42 rlineto
          0 -46 -24 -83 -101 -30 52 96 -1 vhcurveto
          245 hlineto
          31 16 15 69 90 -40 111 -157 -67 -57 -22 -42 -41 hvcurveto
          hintmask 10101111
          42 -36 -56 24 -77 hhcurveto
          -184 -71 -133 -138 -158 62 -96 170 80 56 24 39 39 hvcurveto
          hintmask 01101111
          -44 41 63 -17 82 hhcurveto
          hintmask 01110111
          109 72 70 0 hvcurveto
          hintmask 10101111
          -525 4 rmoveto
          -95 -12 57 126 126 13 55 89 78 16 -53 -128 -113 -8 -70 -81 hvcurveto
          396 235 56 callsubr
        </CharString>
        <CharString name="ogonek">
          -427 -187 72 hstem
          -11 93 vstem
          193 17 callsubr
        </CharString>
        <CharString name="ograve">
          -70 9 callsubr
          hstem
          30 -27 callsubr
          vstem
          155 644 rmoveto
          -89 callgsubr
          107 -658 -106 callsubr
          endchar
        </CharString>
        <CharString name="ohorn">
          -80 -14 102 callsubr
          196 142 7 106 hintmask 00000000
          hintmask 11101000
          618 514 -71 callsubr
        </CharString>
        <CharString name="ohungarumlaut">
          -70 9 callsubr
          hstem
          30 -27 callsubr
          vstem
          188 -59 callgsubr
          -99 -710 -106 callsubr
          endchar
        </CharString>
        <CharString name="omacron">
          -70 9 callsubr
          75 83 hstem
          30 -27 callsubr
          vstem
          104 669 -58 callsubr
          -188 -683 -106 callsubr
          endchar
        </CharString>
        <CharString name="one">
          -180 21 -21 657 -20 hstem
          164 133 vstem
          164 81 rmoveto
          -116 -17 rlineto
          -64 363 64 vlineto
          -114 17 rlineto
          576 -78 vlineto
          -175 -30 rlineto
          -73 120 vlineto
          endchar
        </CharString>
        <CharString name="one.osf">
          -180 0 64 -64 81 337 103 hstemhm
          176 137 hintmask 10110000
          70 64 rmoveto
          -64 350 64 vlineto
          hintmask 01110000
          -107 17 rlineto
          440 -82 vlineto
          -167 -30 rlineto
          -73 112 -337 vlineto
          endchar
        </CharString>
        <CharString name="onehalf">
          171 0 76 -55 -21 278 78 -50 70 204 77 hstemhm
          99 105 268 68 106 116 -49 61 hintmask 1001110000000000
          585 695 rmoveto
          hintmask 0101110000000000
          46 callgsubr
          -651 -263 27 callgsubr
          hintmask 1001110010000000
          375 -318 84 callsubr
          hintmask 1010111100000000
          19 callgsubr
        </CharString>
        <CharString name="onequarter">
          187 98 callsubr
          143 70 204 77 hstemhm
          115 105 382 101 hintmask 10111110
          601 695 rmoveto
          hintmask 01111110
          46 callgsubr
          -651 -263 27 callgsubr
          hintmask 10111110
          409 -326 19 callsubr
        </CharString>
        <CharString name="ordfeminine">
          -234 349 73 217 66 hstem
          23 102 83 99 vstem
          211 390 rmoveto
          6 hlineto
          -20 7 9 -17 38 hhcurveto
          41 44 20 0 hvcurveto
          44 vlineto
          -49 10 rlineto
          186 vlineto
          70 -45 22 -82 -56 -89 -27 -61 -30 17 -9 30 19 17 6 0 vhcurveto
          9 52 rlineto
          0 8 3 23 43 7 -20 -31 vhcurveto
          -34 vlineto
          -76 -11 rlineto
          -68 -10 -41 -31 -61 vvcurveto
          -45 29 -47 70 48 32 30 11 9 vhcurveto
          -3 107 rmoveto
          -65 vlineto
          -4 -9 -15 -6 -16 hhcurveto
          -30 -13 12 19 22 12 16 71 6 hvcurveto
          endchar
        </CharString>
        <CharString name="ordmasculine">
          -224 350 73 211 78 hstem
          12 116 128 116 vstem
          185 350 rmoveto
          124 63 88 103 105 -65 66 -110 -115 -70 -87 -100 -108 59 -67 114 hvcurveto
          13 73 rmoveto
          -58 -12 27 79 68 5 37 60 51 12 -25 -80 -72 -9 -34 -49 hvcurveto
          endchar
        </CharString>
        <CharString name="oslash">
          80 callsubr
          hintmask 00000000
          hintmask 01101100
          125 17 -48 callsubr
        </CharString>
        <CharString name="oslashacute">
          80 callsubr
          hintmask 10101100
          195 578 rmoveto
          -84 callgsubr
          hintmask 01101100
          -166 -676 -48 callsubr
        </CharString>
        <CharString name="otilde">
          -70 9 callsubr
          150 106 callgsubr
          30 -27 callsubr
          hintmask 11011100
          119 -82 callsubr
          hintmask 11101100
          -54 callgsubr
          hintmask 11011100
          16 callsubr
          143 -681 -106 callsubr
          endchar
        </CharString>
        <CharString name="p">
          -57 107 callgsubr
          -3 -20 hstemhm
          76 132 173 142 hintmask 10101011
          7 -110 rmoveto
          -55 301 57 vlineto
          hintmask 01011011
          115 callsubr
          hintmask 10101011
          78 callgsubr
          -70 -52 -34 -16 -21 hvcurveto
          -5 hlineto
          hintmask 01100111
          -28 47 -176 -68 callgsubr
          -505 vlineto
          132 180 rmoveto
          hintmask 10101011
          73 callsubr
          hvcurveto
          hintmask 01100111
          -28 -20 6 6 -13 hvcurveto
          endchar
        </CharString>
        <CharString name="paragraph">
          40 -164 60 125 -21 496 -20 90 82 -68 68 hstemhm
          219 109 84 109 hintmask 11110110
          219 196 rmoveto
          -196 109 566 226 vlineto
          hintmask 11101110
          63 14 rlineto
          hintmask 11110110
          68 -397 vlineto
          -51 -145 -29 -197 -192 143 -34 52 hvcurveto
          -29 -300 rmoveto
          -60 184 vlineto
          102 45 60 99 hvcurveto
          501 -109 -482 vlineto
          -68 -22 -22 -73 -10 vhcurveto
          endchar
        </CharString>
        <CharString name="parenleft">
          -352 -151 850 hstem
          44 119 vstem
          247 -151 rmoveto
          22 57 rlineto
          -82 30 -24 94 249 vvcurveto
          223 20 107 85 33 vhcurveto
          -22 57 rlineto
          -169 -33 -33 -205 -182 vvcurveto
          -182 31 -214 172 -34 vhcurveto
          endchar
        </CharString>
        <CharString name="parenright">
          -352 -151 850 hstem
          95 119 vstem
          -11 -94 rmoveto
          22 -57 rlineto
          172 34 31 219 182 vvcurveto
          182 -33 200 -169 33 vhcurveto
          -22 -57 rlineto
          85 -33 20 -106 -223 vvcurveto
          -249 -24 -95 -82 -30 vhcurveto
          endchar
        </CharString>
        <CharString name="partialdiff">
          -85 -14 76 290 86 172 89 hstem
          30 142 197 145 vstem
          66 622 rmoveto
          36 -47 rlineto
          18 34 41 17 43 hhcurveto
          102 41 -74 -117 2 hvcurveto
          0 -38 19 -58 -138 -101 -78 -156 -142 77 -76 153 158 96 106 254 258 -95 95 -163 -111 -79 -77 0 vhcurveto
          303 -283 rmoveto
          -180 -6 -97 -90 -84 -17 63 82 112 29 33 76 51 41 -13 0 vhcurveto
          endchar
        </CharString>
        <CharString name="percent">
          127 101 callsubr
          19 97 117 97 71 97 117 97 hintmask 1111011110000000
          568 122 callgsubr
          hintmask 1110111110000000
          87 callsubr
          hintmask 1111011110000000
          95 -36 66 -114 -111 -50 -69 -94 vhcurveto
          hintmask 1110111110000000
          97 callgsubr
          hintmask 1111011110000000
          66 16 29 42 44 15 -20 -75 vhcurveto
          hintmask 1110111110000000
          -63 -9 -32 -49 vhcurveto
          hintmask 1111011110000000
          377 -423 rmoveto
          20 callgsubr
          5 66 rmoveto
          35 callgsubr
          endchar
        </CharString>
        <CharString name="period">
          -419 -8 103 callsubr
          -8 rmoveto
          74 callsubr
        </CharString>
        <CharString name="periodcentered">
          -419 185 103 callsubr
          185 rmoveto
          74 callsubr
        </CharString>
        <CharString name="perthousand">
          486 101 callsubr
          10 97 117 97 71 97 117 97 52 97 117 97 hintmask 1111011111100000
          559 122 callgsubr
          hintmask 0010111010000000
          87 callsubr
          hintmask 0001011000000000
          95 -36 66 -114 -111 -50 -69 -94 vhcurveto
          hintmask 0010111010000000
          97 callgsubr
          hintmask 0001011000000000
          66 16 29 42 44 15 -20 -75 vhcurveto
          hintmask 0010111010000000
          -63 -9 -32 -49 vhcurveto
          hintmask 1100000111100000
          377 -423 rmoveto
          20 callgsubr
          363 hmoveto
          20 callgsubr
          -358 66 rmoveto
          35 callgsubr
          363 hmoveto
          35 callgsubr
          endchar
        </CharString>
        <CharString name="pi">
          -7 -6 92 -86 55 363 102 hstemhm
          125 120 132 121 hintmask 00000000
          hintmask 01111000
          81 55 rmoveto
          -55 105 vlineto
          0 59 26 76 vvcurveto
          316 132 vlineto
          hintmask 10111000
          -356 vlineto
          -58 26 -10 56 54 58 38 0 vhcurveto
          54 -73 332 vlineto
          37 29 26 43 43 hvcurveto
          36 36 -36 46 -85 -49 rlineto
          -348 hlineto
          -81 -3 -17 -52 -52 hvcurveto
          -36 -36 36 -46 87 49 rlineto
          hintmask 01111000
          -321 vlineto
          endchar
        </CharString>
        <CharString name="plus">
          -80 219 93 hstem
          215 97 vstem
          65 312 71 callsubr
          endchar
        </CharString>
        <CharString name="plusminus">
          -80 -7 94 193 93 hstem
          215 97 vstem
          65 373 71 callsubr
          -148 -286 93 callsubr
          endchar
        </CharString>
        <CharString name="product">
          113 0 56 507 85 -66 66 -61 callsubr
          209 142 hintmask 11011000
          0 callsubr
          488 209 -488 65 callsubr
          488 vlineto
          hintmask 10111000
          80 19 rlineto
          hintmask 11011000
          66 -653 vlineto
          hintmask 10111000
          -66 vlineto
          hintmask 11011000
          80 -19 rlineto
          -488 vlineto
          endchar
        </CharString>
        <CharString name="q">
          -74 -165 55 105 81 350 42 -42 83 -10 -20 hstemhm
          30 83 callgsubr
          hintmask 11010110
          241 -110 rmoveto
          -55 305 55 vlineto
          -69 14 rlineto
          hintmask 11101110
          595 -66 vlineto
          -43 -31 rlineto
          -11 hlineto
          hintmask 11010110
          10 -9 -32 31 -65 hhcurveto
          -115 -106 -89 -199 -161 80 -65 126 60 36 26 19 19 hvcurveto
          3 -2 -9 -9 rlineto
          -123 vlineto
          507 vmoveto
          -316 vlineto
          -11 -16 -24 -10 -34 hhcurveto
          -63 -36 50 112 105 12 83 85 31 28 -8 -5 17 hvcurveto
          endchar
        </CharString>
        <CharString name="question">
          -249 -28 152 428 115 hstemhm
          36 149 -122 90 84 112 hintmask 00000000
          hintmask 01011000
          63 327 rmoveto
          -164 90 vlineto
          22 105 53 18 rlineto
          64 22 57 57 88 vvcurveto
          141 -118 73 -107 -85 -18 -21 -43 -31 20 -20 0 vhcurveto
          100 hlineto
          83 13 -22 -45 -67 -18 -36 -60 -21 hvcurveto
          hintmask 11101000
          -52 -389 rmoveto
          74 callsubr
        </CharString>
        <CharString name="questiondown">
          -249 -164 115 428 152 hstemhm
          21 112 50 149 -115 90 22 20 hintmask 11110000
          183 450 78 callsubr
          hintmask 11100100
          146 -499 rmoveto
          -100 hlineto
          -83 -13 22 45 66 18 37 60 21 hvcurveto
          hintmask 11101000
          96 34 rlineto
          164 -90 vlineto
          -22 -105 -53 -18 rlineto
          -64 -22 -57 -58 -87 vvcurveto
          -141 118 -73 107 vhcurveto
          hintmask 11100100
          85 18 21 43 31 -20 20 0 hvcurveto
          endchar
        </CharString>
        <CharString name="quotedbl">
          -299 491 230 hstem
          31 263 vstem
          31 706 rmoveto
          8 callsubr
          150 hmoveto
          8 callsubr
          endchar
        </CharString>
        <CharString name="quotedblbase">
          -262 -144 114 callsubr
          -144 -25 callgsubr
          204 -16 -25 callgsubr
          endchar
        </CharString>
        <CharString name="quotedblleft">
          -258 466 262 hstem
          16 112 55 112 vstem
          123 728 37 callsubr
          130 16 37 callsubr
          endchar
        </CharString>
        <CharString name="quotedblright">
          -262 466 114 callsubr
          466 -25 callgsubr
          204 -16 -25 callgsubr
          endchar
        </CharString>
        <CharString name="quoteleft">
          -419 466 262 hstem
          23 117 vstem
          134 728 rmoveto
          -20 -19 -91 -97 -73 vvcurveto
          -41 29 -32 45 39 22 23 27 13 vhcurveto
          -16 16 -15 26 32 vvcurveto
          29 12 47 19 46 vhcurveto
          endchar
        </CharString>
        <CharString name="quoteright">
          -419 459 262 hstem
          55 117 vstem
          61 459 34 callsubr
        </CharString>
        <CharString name="quotesinglbase">
          -419 -140 262 hstem
          55 117 vstem
          61 -140 34 callsubr
        </CharString>
        <CharString name="quotesingle">
          -403 491 230 hstem
          46 113 vstem
          46 706 rmoveto
          8 callsubr
          endchar
        </CharString>
        <CharString name="r">
          -196 44 callsubr
          20 55 -79 callsubr
          endchar
        </CharString>
        <CharString name="racute">
          -221 44 callsubr
          130 -69 callgsubr
          -206 -638 -79 callsubr
          endchar
        </CharString>
        <CharString name="radical">
          -60 -7 103 -82 -21 447 56 219 56 hstemhm
          -20 654 hintmask 01111000
          40 427 rmoveto
          151 -434 rlineto
          127 hlineto
          210 709 106 13 rlineto
          56 -172 vlineto
          hintmask 10111000
          -180 -626 -10 -49 -9 49 -102 351 rlineto
          -181 -56 hlineto
          endchar
        </CharString>
        <CharString name="rcaron">
          -221 44 callsubr
          111 719 -99 callsubr
          -206 -589 -79 callsubr
          endchar
        </CharString>
        <CharString name="rcommaaccent">
          -221 15 callgsubr
          -95 98 hintmask 10011000
          20 55 -79 callsubr
          hintmask 10010100
          23 -281 -96 callsubr
        </CharString>
        <CharString name="registered">
          81 213 68 75 43.5 -41.5 17 86 53 80 54 77 68 hstemhm
          41 76 38 13 34 94 75 98 26 14 38 74 hintmask 1101111111010000
          41 503 rmoveto
          -160 130 -130 160 160 130 130 160 160 -130 130 -160 -160 -130 -130 -160 vhcurveto
          327 145 rmoveto
          -201 hlineto
          47 39 57 30 68 hhcurveto
          122 94 -100 -122 hvcurveto
          hintmask 1011111111110000
          -48 -14 -44 -24 -36 vhcurveto
          21 vlineto
          hintmask 1101111111010000
          -45 9 -56 77 rlineto
          0 61 20 63 vvcurveto
          59 -46 24 -55 vhcurveto
          -213 -252 rmoveto
          -22 vlineto
          -24 36 -14 45 48 vvcurveto
          54 17 49 31 39 vhcurveto
          -45 vlineto
          37 -6 rlineto
          -191 vlineto
          113 111 rmoveto
          -19 77 hlineto
          0 12 3 19 25 19 -7 -32 -31 -21 -10 -35 vhcurveto
          -147 -158 rmoveto
          175 40 hlineto
          -47 7 rlineto
          58 29 vlineto
          hintmask 1011111111010000
          59 -90 rlineto
          hintmask 1011111111110000
          -10 5 11 -3 8 hhcurveto
          87 hlineto
          -47 -39 -58 -30 -67 hhcurveto
          hintmask 1101111111010000
          -67 -57 29 46 -39 hvcurveto
          endchar
        </CharString>
        <CharString name="ring">
          -426 561 48 86 50 hstem
          -14 74 64 74 vstem
          -14 -19 callsubr
          endchar
        </CharString>
        <CharString name="s">
          -24 callgsubr
          52 164 -88 callsubr
          -43 -23 17 8 119 callsubr
          endchar
        </CharString>
        <CharString name="sacute">
          -24 callgsubr
          137 -69 callgsubr
          -181 -529 -88 callsubr
          -45 -22 17 8 -10 vhcurveto
          -24 80 rlineto
          endchar
        </CharString>
        <CharString name="sacute.loclPLK">
          -24 callgsubr
          211 -24 callsubr
          -219 -524 -88 callsubr
          -43 -23 17 8 119 callsubr
          endchar
        </CharString>
        <CharString name="scaron">
          -24 callgsubr
          118 719 -99 callsubr
          -181 -480 -88 callsubr
          -45 -21 16 9 119 callsubr
          endchar
        </CharString>
        <CharString name="scedilla">
          -170 -194 53 128 72 371 79 -20 20 hstemhm
          40 116 85 92 -33 116 -113 88 hintmask 11101010
          145 -28 callsubr
          hintmask 11101100
          -2 callsubr
          17 vlineto
          hintmask 11101010
          87 7 85 41 112 203 -260 -67 95 vvcurveto
          28 15 24 66 vhcurveto
          hintmask 11101001
          39 27 -14 0 hvcurveto
          21 -71 rlineto
          63 hlineto
          hintmask 11011001
          8 144 rlineto
          hintmask 11101001
          5 -18 -71 15 -63 hhcurveto
          -122 -81 -50 -109 hvcurveto
          hintmask 11101010
          109 callsubr
          -22 17 8 -10 vhcurveto
          -24 80 rlineto
          -63 hlineto
          -7 -145 rlineto
          hintmask 11101100
          17 -10 62 -17 65 -5 -23 -51 rcurveline
          -57 callsubr
        </CharString>
        <CharString name="scircumflex">
          -24 callgsubr
          81 581 -105 callsubr
          -130 -521 -88 callsubr
          -43 -23 17 8 119 callsubr
          endchar
        </CharString>
        <CharString name="scommaaccent">
          -170 -14 73 371 79 -20 20 hstemhm
          40 116 43 98 3 116 -113 88 hintmask 11010100
          32 callgsubr
          hintmask 11010010
          39 27 -14 0 hvcurveto
          21 -71 rlineto
          63 hlineto
          hintmask 10110010
          8 144 rlineto
          hintmask 11010010
          5 -18 -71 15 -63 hhcurveto
          -122 -81 -50 -109 hvcurveto
          hintmask 11010100
          109 callsubr
          -21 16 9 119 callsubr
          hintmask 11011000
          70 -376 -96 callsubr
        </CharString>
        <CharString name="section">
          -59 -164 84 708 84 hstemhm
          63 129 -128 69 261 122 -94 69 hintmask 11101000
          227 373 rmoveto
          250 -148 61 94 -247 146 rlineto
          -78 52 -21 13 39 vvcurveto
          37 36 22 73 vhcurveto
          hintmask 11100100
          61 39 -19 0 hvcurveto
          28 callsubr
          0 -88 25 -110 -152 -78 -77 -81 vhcurveto
          hintmask 11101000
          -75 39 -32 125 -74 vhcurveto
          hintmask 11011000
          -163 -308 rmoveto
          -178 vlineto
          0 77 -51 133 151 91 79 106 45 -24 38 -73 42 vhcurveto
          -299 172 -61 -88 275 -163 rlineto
          57 -34 3 -14 -27 vvcurveto
          -45 -39 -27 -74 -82 -44 42 0 vhcurveto
          -22 103 rlineto
          endchar
        </CharString>
        <CharString name="semicolon">
          -419 312 152 hstemhm
          21 149 -115 117 hintmask 00000000
          hintmask 11000000
          92 312 -52 callsubr
          -31 -451 rmoveto
          hintmask 10100000
          33 callsubr
        </CharString>
        <CharString name="seven">
          -155 21 -21 460 188 -112 112 hstemhm
          hintmask 10100000
          339 536 rmoveto
          -25 vlineto
          -266 -455 rlineto
          -56 110 vlineto
          277 536 rlineto
          hintmask 11000000
          112 -439 vlineto
          10 -188 rlineto
          72 hlineto
          hintmask 10100000
          13 76 rlineto
          endchar
        </CharString>
        <CharString name="seven.osf">
          -150 409 112 hstem
          15 75 243 121 vstem
          333 384 rmoveto
          -286 -548 rlineto
          148 hlineto
          259 573 rlineto
          112 -439 -188 75 vlineto
          13 76 rlineto
          230 hlineto
          endchar
        </CharString>
        <CharString name="six">
          -65 -15 90 238 103 250 -20 hstem
          45 153 170 142 vstem
          472 611 rmoveto
          55 vlineto
          -256 -171 -143 -279 -182 91 -77 132 130 112 78 159 119 -66 75 -109 -75 -41 -28 -14 -20 hvcurveto
          15 130 85 85 173 22 rrcurveto
          -189 -536 rmoveto
          -67 -19 55 124 42 2 8 0 hvcurveto
          0 29 9 46 57 37 -22 -91 -87 -21 -38 -64 vhcurveto
          endchar
        </CharString>
        <CharString name="six.osf">
          -65 -15 90 238 103 186 55 hstem
          45 153 170 142 vstem
          463 602 rmoveto
          55 vlineto
          -228 -190 -149 -266 -182 91 -75 142 120 112 68 161 131 -58 71 -109 -98 -45 -42 0 hvcurveto
          24 116 63 79 176 33 rrcurveto
          -180 -527 rmoveto
          -67 -18 42 124 55 2 8 0 hvcurveto
          0 28 9 46 57 37 -22 -78 -100 -21 -38 -64 vhcurveto
          endchar
        </CharString>
        <CharString name="slash">
          34 callgsubr
        </CharString>
        <CharString name="space">
          -438 endchar
        </CharString>
        <CharString name="sterling">
          -90 0 83 -83 185 106 87 199 83 hstemhm
          35 147 -93 125 187 113 callgsubr
          448 106 callsubr
          -212 7 hlineto
          21 15 11 28 41 vvcurveto
          117 129 87 -129 108 vlineto
          72 30 19 61 27 31 -3 -5 15 vhcurveto
          23 -89 rlineto
          69 159 hlineto
          13 -45 -65 8 -55 hhcurveto
          -145 -71 -58 -116 hvcurveto
          -108 -55 -87 55 -117 vlineto
          hintmask 10110100
          -40 -19 -40 -35 -31 vhcurveto
          endchar
        </CharString>
        <CharString name="sterling.osf">
          -130 0 83 -83 185 30 87 149 83 hstemhm
          35 147 -93 125 154 113 callgsubr
          415 106 callsubr
          -179 7 hlineto
          25 18 7 32 34 vvcurveto
          41 89 87 -89 58 vlineto
          72 25 19 50 42 18 -8 0 vhcurveto
          19 -89 rlineto
          69 159 hlineto
          5 -16 -53 16 -83 hhcurveto
          -106 -90 -36 -138 hvcurveto
          -58 -55 -87 55 -41 vlineto
          hintmask 10110100
          -23 -4 -42 -50 -46 vhcurveto
          endchar
        </CharString>
        <CharString name="summation">
          -89 0 93 367 188 -76 76 hstemhm
          413 66 -61 66 hintmask 10110000
          39 72 rmoveto
          -72 vlineto
          hintmask 10101000
          445 188 -66 hlineto
          -26 -95 rlineto
          -233 hlineto
          171 246 -136 233 rlineto
          hintmask 10110000
          192 hlineto
          hintmask 11010000
          31 callgsubr
          hintmask 10110000
          188 -441 -59 vlineto
          168 -277 rlineto
          endchar
        </CharString>
        <CharString name="t">
          -219 -9 89 343 76 hstem
          92 132 vstem
          92 423 -57 callgsubr
          endchar
        </CharString>
        <CharString name="tbar">
          -239 -9 89 166 77 100 76 hstem
          92 132 vstem
          371 45 rmoveto
          -17 51 rlineto
          0 -38 -16 -38 -33 -21 10 54 vhcurveto
          102 124 77 -124 100 127 vlineto
          14 30 rlineto
          46 -141 131 -88 vlineto
          -44 -121 -96 -21 rlineto
          -65 96 -100 -97 -77 97 -120 vlineto
          -88 32 -47 105 vhcurveto
          79 64 54 -1 hhcurveto
          endchar
        </CharString>
        <CharString name="tcaron">
          -244 -9 89 343 76 42 89 hstem
          91 132 43 111 vstem
          266 -34 callgsubr
          -175 -118 -57 callgsubr
          endchar
        </CharString>
        <CharString name="thorn">
          -59 107 callgsubr
          hstemhm
          76 132 173 142 hintmask 10101110
          7 -110 rmoveto
          -55 301 57 vlineto
          hintmask 01011110
          115 callsubr
          hintmask 01101110
          78 callgsubr
          -67 -49 -30 -18 -23 hvcurveto
          224 -94 callsubr
          -698 vlineto
          132 180 rmoveto
          73 callsubr
          -28 -20 6 6 -13 hvcurveto
          endchar
        </CharString>
        <CharString name="three">
          -129 -17 87 -87 211 105 80 98 189 -87 87 hstemhm
          309 126 -99 99 -99 134 hintmask 01110010
          219 -17 rmoveto
          hintmask 01110001
          115 136 54 152 104 -70 47 -80 17 hvcurveto
          9 vlineto
          hintmask 01110010
          55 23 60 52 78 vvcurveto
          112 -84 35 -127 -88 -63 -20 -15 -37 vhcurveto
          10 -154 rlineto
          71 hlineto
          8 89 rlineto
          hintmask 01101010
          9 22 25 4 29 hhcurveto
          hintmask 01101100
          75 33 -22 -66 -71 -56 -41 -79 hvcurveto
          -47 -43 hlineto
          19 -37 rlineto
          31 hlineto
          hintmask 01101010
          84 75 -37 -77 hvcurveto
          hintmask 10110010
          -78 -32 -37 -92 -41 -45 25 5 -7 vhcurveto
          hintmask 01110010
          -11 94 rlineto
          -78 hlineto
          -10 -161 rlineto
          -15 24 62 -35 113 hhcurveto
          endchar
        </CharString>
        <CharString name="three.osf">
          -150 -166 62 542 96 hstemhm
          104 172 -31 142 -102 144 hintmask 11001000
          29 -104 rmoveto
          -55 vlineto
          0 37 -7 49 188 126 70 164 103 -69 45 -84 10 vhcurveto
          9 vlineto
          hintmask 11010000
          55 23 56 52 78 vvcurveto
          67 -44 79 -133 -142 -57 -103 0 vhcurveto
          36 -36 rlineto
          0 47 43 68 60 23 -24 -48 vhcurveto
          hintmask 11101000
          -71 -47 -34 -94 -18 vhcurveto
          -38 vlineto
          19 -37 rlineto
          31 hlineto
          hintmask 11001000
          84 47 -37 -79 -130 -70 -26 -186 hvcurveto
          endchar
        </CharString>
        <CharString name="threequarters">
          197 98 callsubr
          137 76 124 -20 34 7 65 76 0 -20 hstemhm
          20 89 callsubr
          289 101 hintmask 1011101010110000
          611 695 rmoveto
          hintmask 0111100110110000
          46 callgsubr
          -665 -211 72 callsubr
          hintmask 1011101011010000
          116 callgsubr
          -46 -27 -10 -15 vhcurveto
          hintmask 1011111011010000
          71 callgsubr
          hintmask 1011111010110000
          84 callgsubr
          -15 8 3 -5 hvcurveto
          -7 45 rlineto
          446 -378 19 callsubr
        </CharString>
        <CharString name="tilde">
          -241 661 106 callgsubr
          -10 389 hintmask 01100000
          29 -82 callsubr
          hintmask 10100000
          -54 callgsubr
          hintmask 01100000
          16 callsubr
          endchar
        </CharString>
        <CharString name="tildecomb">
          661 106 callgsubr
          -379 389 hintmask 01100000
          -340 -82 callsubr
          hintmask 10100000
          -54 callgsubr
          hintmask 01100000
          16 callsubr
          endchar
        </CharString>
        <CharString name="tildecomb.case">
          700 144 hstem
          -389 389 vstem
          -354 -95 callsubr
          endchar
        </CharString>
        <CharString name="trademark">
          373 356 50.5 240.5 60 -55.5 55.5 hstemhm
          -1 49 78 105 78 49 82 70 277 105 hintmask 11011111
          73 403 rmoveto
          -47 212 47 vlineto
          -54 7 rlineto
          237 63 vlineto
          15 -58 rlineto
          49 118 -359 -118 49 hlineto
          15 58 rlineto
          63 -237 hlineto
          260 -11 rmoveto
          -43 166 43 vlineto
          -42 8 rlineto
          231 6 vlineto
          79 -282 rlineto
          105 hlineto
          hintmask 10111111
          81 280 rlineto
          6 -228 hlineto
          -43 -7 rlineto
          -45 202 45 vlineto
          -54 7 rlineto
          240 vlineto
          54 7 rlineto
          52 -215 vlineto
          -58 -213 -8 -44 -8 44 rlineto
          hintmask 11011111
          -57 213 rlineto
          -209 -52 hlineto
          49 -5 rlineto
          -243 vlineto
          endchar
        </CharString>
        <CharString name="two">
          -99 0 95 484 87 hstem
          328 140 vstem
          214 579 rmoveto
          89 25 -32 -69 -60 -21 -60 -61 -64 hvcurveto
          -217 -226 rlineto
          -68 462 188 -66 vlineto
          -26 -93 rlineto
          -210 6 hlineto
          138 134 rlineto
          95 94 46 60 105 vvcurveto
          107 -64 65 -175 -75 -80 -20 -15 -37 vhcurveto
          -172 69 vlineto
          21 104 rlineto
          9 22 22 7 43 hhcurveto
          endchar
        </CharString>
        <CharString name="two.osf">
          -99 0 93 341 100 hstemhm
          292 144 -36 66 hintmask 11100000
          30 68 rmoveto
          -68 vlineto
          hintmask 11010000
          436 188 -66 hlineto
          -26 -95 rlineto
          -178 6 hlineto
          87 62 rlineto
          hintmask 11100000
          88 62 65 55 105 vvcurveto
          90 -75 61 -127 -119 -91 -98 0 vhcurveto
          40 -45 rlineto
          0 60 43 72 73 23 -35 -44 -37 -13 -31 -77 -68 vhcurveto
          endchar
        </CharString>
        <CharString name="u">
          -51 callsubr
          hintmask 10111000
          87 409 rmoveto
          -87 callsubr
          hintmask 01111000
          -99 callgsubr
          hintmask 10111000
          -101 callgsubr
          endchar
        </CharString>
        <CharString name="uacute">
          -51 callsubr
          hintmask 10111000
          203 -69 callgsubr
          -212 -284 rmoveto
          -87 callsubr
          hintmask 01111000
          -99 callgsubr
          hintmask 10111000
          -101 callgsubr
          endchar
        </CharString>
        <CharString name="ubreve">
          -53 callgsubr
          64 89 -15 callsubr
          hintmask 10111100
          209 719 -100 callsubr
          -122 -310 rmoveto
          -87 callsubr
          hintmask 01111100
          -99 callgsubr
          hintmask 10111100
          -101 callgsubr
          endchar
        </CharString>
        <CharString name="ucircumflex">
          -51 callsubr
          hintmask 10111000
          142 581 -105 callsubr
          -156 -276 rmoveto
          -87 callsubr
          hintmask 01111000
          -99 callgsubr
          hintmask 10111000
          -101 callgsubr
          endchar
        </CharString>
        <CharString name="udieresis">
          -53 callgsubr
          75 152 hstemhm
          87 132 -119 52 callgsubr
          -94 132 hintmask 00000000
          hintmask 10110110
          170 561 -20 callsubr
          -308 -72 callgsubr
        </CharString>
        <CharString name="ugrave">
          -51 callsubr
          hintmask 10111000
          180 644 rmoveto
          -89 callgsubr
          -93 -235 rmoveto
          -87 callsubr
          hintmask 01111000
          -99 callgsubr
          hintmask 10111000
          -101 callgsubr
          endchar
        </CharString>
        <CharString name="uhorn">
          -51 callsubr
          65 106 hintmask 10111100
          683 514 -90 callsubr
          hintmask 01111100
          -7 callsubr
          hintmask 10111100
          54 callgsubr
        </CharString>
        <CharString name="uhungarumlaut">
          -51 callsubr
          hintmask 10111000
          205 -59 callgsubr
          -291 -287 rmoveto
          -87 callsubr
          hintmask 01111000
          -99 callgsubr
          hintmask 10111000
          -101 callgsubr
          endchar
        </CharString>
        <CharString name="umacron">
          -53 callgsubr
          100 83 -15 callsubr
          hintmask 10111100
          119 669 -58 callsubr
          -378 -260 rmoveto
          -87 callsubr
          hintmask 01111100
          -99 callgsubr
          hintmask 10111100
          -101 callgsubr
          endchar
        </CharString>
        <CharString name="underscore">
          -150 -93 94 hstem
          10 440 vstem
          10 1 rmoveto
          -94 440 94 vlineto
          endchar
        </CharString>
        <CharString name="uni00A0">
          -438 endchar
        </CharString>
        <CharString name="uni00AD">
          64 callsubr
        </CharString>
        <CharString name="uni00B2">
          -260 356 76 202 78 hstemhm
          27 68 106 116 -49 61 hintmask 11101000
          29 418 84 callsubr
          hintmask 11110000
          19 callgsubr
        </CharString>
        <CharString name="uni00B3">
          -260 350 76 138 7 65 76 hstemhm
          41 89 callsubr
          hintmask 11110100
          41 482 72 callsubr
          hintmask 11111000
          116 callgsubr
          -48 -29 -8 -13 vhcurveto
          71 callgsubr
          hintmask 11110100
          84 callgsubr
          -14 7 4 -6 hvcurveto
          -7 45 rlineto
          endchar
        </CharString>
        <CharString name="uni00B5">
          -42 callsubr
        </CharString>
        <CharString name="uni00B9">
          -260 356 70 204 77 hstem
          144 105 vstem
          53 430 27 callgsubr
          endchar
        </CharString>
</ttFont>
